<svg width="1363" height="163" viewBox="0 0 1363 163" fill="none" xmlns="http://www.w3.org/2000/svg">
<path d="M0 15C0 6.71573 6.71573 0 15 0H37V163H15C6.71573 163 0 156.284 0 148V15Z" fill="#424242"/>
<rect width="1097" height="163" transform="translate(37)" fill="#F0F0F0"/>
<path d="M101.906 53.9219L94.3945 51.2383V48.0859L104.602 52.375V54.6367L101.906 53.9219ZM94.3945 56.1719L101.918 53.4297L104.602 52.7852V55.0352L94.3945 59.3242V56.1719ZM115.805 56.5352C115.805 56.2305 115.758 55.957 115.664 55.7148C115.578 55.4648 115.414 55.2383 115.172 55.0352C114.93 54.8242 114.59 54.6172 114.152 54.4141C113.715 54.2109 113.148 54 112.453 53.7812C111.68 53.5312 110.945 53.25 110.25 52.9375C109.562 52.625 108.953 52.2617 108.422 51.8477C107.898 51.4258 107.484 50.9375 107.18 50.3828C106.883 49.8281 106.734 49.1836 106.734 48.4492C106.734 47.7383 106.891 47.0938 107.203 46.5156C107.516 45.9297 107.953 45.4297 108.516 45.0156C109.078 44.5938 109.742 44.2695 110.508 44.043C111.281 43.8164 112.129 43.7031 113.051 43.7031C114.309 43.7031 115.406 43.9297 116.344 44.3828C117.281 44.8359 118.008 45.457 118.523 46.2461C119.047 47.0352 119.309 47.9375 119.309 48.9531H115.816C115.816 48.4531 115.711 48.0156 115.5 47.6406C115.297 47.2578 114.984 46.957 114.562 46.7383C114.148 46.5195 113.625 46.4102 112.992 46.4102C112.383 46.4102 111.875 46.5039 111.469 46.6914C111.062 46.8711 110.758 47.1172 110.555 47.4297C110.352 47.7344 110.25 48.0781 110.25 48.4609C110.25 48.75 110.32 49.0117 110.461 49.2461C110.609 49.4805 110.828 49.6992 111.117 49.9023C111.406 50.1055 111.762 50.2969 112.184 50.4766C112.605 50.6562 113.094 50.832 113.648 51.0039C114.578 51.2852 115.395 51.6016 116.098 51.9531C116.809 52.3047 117.402 52.6992 117.879 53.1367C118.355 53.5742 118.715 54.0703 118.957 54.625C119.199 55.1797 119.32 55.8086 119.32 56.5117C119.32 57.2539 119.176 57.918 118.887 58.5039C118.598 59.0898 118.18 59.5859 117.633 59.9922C117.086 60.3984 116.434 60.707 115.676 60.918C114.918 61.1289 114.07 61.2344 113.133 61.2344C112.289 61.2344 111.457 61.125 110.637 60.9062C109.816 60.6797 109.07 60.3398 108.398 59.8867C107.734 59.4336 107.203 58.8555 106.805 58.1523C106.406 57.4492 106.207 56.6172 106.207 55.6562H109.734C109.734 56.1875 109.816 56.6367 109.98 57.0039C110.145 57.3711 110.375 57.668 110.672 57.8945C110.977 58.1211 111.336 58.2852 111.75 58.3867C112.172 58.4883 112.633 58.5391 113.133 58.5391C113.742 58.5391 114.242 58.4531 114.633 58.2812C115.031 58.1094 115.324 57.8711 115.512 57.5664C115.707 57.2617 115.805 56.918 115.805 56.5352ZM125.062 48.3203V61H121.676V48.3203H125.062ZM121.465 45.0156C121.465 44.5234 121.637 44.1172 121.98 43.7969C122.324 43.4766 122.785 43.3164 123.363 43.3164C123.934 43.3164 124.391 43.4766 124.734 43.7969C125.086 44.1172 125.262 44.5234 125.262 45.0156C125.262 45.5078 125.086 45.9141 124.734 46.2344C124.391 46.5547 123.934 46.7148 123.363 46.7148C122.785 46.7148 122.324 46.5547 121.98 46.2344C121.637 45.9141 121.465 45.5078 121.465 45.0156ZM135.879 48.3203H138.938V60.5781C138.938 61.7344 138.68 62.7148 138.164 63.5195C137.656 64.332 136.945 64.9453 136.031 65.3594C135.117 65.7812 134.055 65.9922 132.844 65.9922C132.312 65.9922 131.75 65.9219 131.156 65.7812C130.57 65.6406 130.008 65.4219 129.469 65.125C128.938 64.8281 128.492 64.4531 128.133 64L129.621 62.0078C130.012 62.4609 130.465 62.8125 130.98 63.0625C131.496 63.3203 132.066 63.4492 132.691 63.4492C133.301 63.4492 133.816 63.3359 134.238 63.1094C134.66 62.8906 134.984 62.5664 135.211 62.1367C135.438 61.7148 135.551 61.2031 135.551 60.6016V51.25L135.879 48.3203ZM127.348 54.8125V54.5664C127.348 53.5977 127.465 52.7188 127.699 51.9297C127.941 51.1328 128.281 50.4492 128.719 49.8789C129.164 49.3086 129.703 48.8672 130.336 48.5547C130.969 48.2422 131.684 48.0859 132.48 48.0859C133.324 48.0859 134.031 48.2422 134.602 48.5547C135.172 48.8672 135.641 49.3125 136.008 49.8906C136.375 50.4609 136.66 51.1367 136.863 51.918C137.074 52.6914 137.238 53.5391 137.355 54.4609V55C137.238 55.8828 137.062 56.7031 136.828 57.4609C136.594 58.2188 136.285 58.8828 135.902 59.4531C135.52 60.0156 135.043 60.4531 134.473 60.7656C133.91 61.0781 133.238 61.2344 132.457 61.2344C131.676 61.2344 130.969 61.0742 130.336 60.7539C129.711 60.4336 129.176 59.9844 128.73 59.4062C128.285 58.8281 127.941 58.1484 127.699 57.3672C127.465 56.5859 127.348 55.7344 127.348 54.8125ZM130.723 54.5664V54.8125C130.723 55.3359 130.773 55.8242 130.875 56.2773C130.977 56.7305 131.133 57.1328 131.344 57.4844C131.562 57.8281 131.832 58.0977 132.152 58.293C132.48 58.4805 132.867 58.5742 133.312 58.5742C133.93 58.5742 134.434 58.4453 134.824 58.1875C135.215 57.9219 135.508 57.5586 135.703 57.0977C135.898 56.6367 136.012 56.1055 136.043 55.5039V53.9688C136.027 53.4766 135.961 53.0352 135.844 52.6445C135.727 52.2461 135.562 51.9062 135.352 51.625C135.141 51.3438 134.867 51.125 134.531 50.9688C134.195 50.8125 133.797 50.7344 133.336 50.7344C132.891 50.7344 132.504 50.8359 132.176 51.0391C131.855 51.2344 131.586 51.5039 131.367 51.8477C131.156 52.1914 130.996 52.5977 130.887 53.0664C130.777 53.5273 130.723 54.0273 130.723 54.5664ZM144.867 51.0273V61H141.492V48.3203H144.656L144.867 51.0273ZM144.375 54.2148H143.461C143.461 53.2773 143.582 52.4336 143.824 51.6836C144.066 50.9258 144.406 50.2812 144.844 49.75C145.281 49.2109 145.801 48.8008 146.402 48.5195C147.012 48.2305 147.691 48.0859 148.441 48.0859C149.035 48.0859 149.578 48.1719 150.07 48.3438C150.562 48.5156 150.984 48.7891 151.336 49.1641C151.695 49.5391 151.969 50.0352 152.156 50.6523C152.352 51.2695 152.449 52.0234 152.449 52.9141V61H149.051V52.9023C149.051 52.3398 148.973 51.9023 148.816 51.5898C148.66 51.2773 148.43 51.0586 148.125 50.9336C147.828 50.8008 147.461 50.7344 147.023 50.7344C146.57 50.7344 146.176 50.8242 145.84 51.0039C145.512 51.1836 145.238 51.4336 145.02 51.7539C144.809 52.0664 144.648 52.4336 144.539 52.8555C144.43 53.2773 144.375 53.7305 144.375 54.2148ZM164.109 56.5352C164.109 56.2305 164.062 55.957 163.969 55.7148C163.883 55.4648 163.719 55.2383 163.477 55.0352C163.234 54.8242 162.895 54.6172 162.457 54.4141C162.02 54.2109 161.453 54 160.758 53.7812C159.984 53.5312 159.25 53.25 158.555 52.9375C157.867 52.625 157.258 52.2617 156.727 51.8477C156.203 51.4258 155.789 50.9375 155.484 50.3828C155.188 49.8281 155.039 49.1836 155.039 48.4492C155.039 47.7383 155.195 47.0938 155.508 46.5156C155.82 45.9297 156.258 45.4297 156.82 45.0156C157.383 44.5938 158.047 44.2695 158.812 44.043C159.586 43.8164 160.434 43.7031 161.355 43.7031C162.613 43.7031 163.711 43.9297 164.648 44.3828C165.586 44.8359 166.312 45.457 166.828 46.2461C167.352 47.0352 167.613 47.9375 167.613 48.9531H164.121C164.121 48.4531 164.016 48.0156 163.805 47.6406C163.602 47.2578 163.289 46.957 162.867 46.7383C162.453 46.5195 161.93 46.4102 161.297 46.4102C160.688 46.4102 160.18 46.5039 159.773 46.6914C159.367 46.8711 159.062 47.1172 158.859 47.4297C158.656 47.7344 158.555 48.0781 158.555 48.4609C158.555 48.75 158.625 49.0117 158.766 49.2461C158.914 49.4805 159.133 49.6992 159.422 49.9023C159.711 50.1055 160.066 50.2969 160.488 50.4766C160.91 50.6562 161.398 50.832 161.953 51.0039C162.883 51.2852 163.699 51.6016 164.402 51.9531C165.113 52.3047 165.707 52.6992 166.184 53.1367C166.66 53.5742 167.02 54.0703 167.262 54.625C167.504 55.1797 167.625 55.8086 167.625 56.5117C167.625 57.2539 167.48 57.918 167.191 58.5039C166.902 59.0898 166.484 59.5859 165.938 59.9922C165.391 60.3984 164.738 60.707 163.98 60.918C163.223 61.1289 162.375 61.2344 161.438 61.2344C160.594 61.2344 159.762 61.125 158.941 60.9062C158.121 60.6797 157.375 60.3398 156.703 59.8867C156.039 59.4336 155.508 58.8555 155.109 58.1523C154.711 57.4492 154.512 56.6172 154.512 55.6562H158.039C158.039 56.1875 158.121 56.6367 158.285 57.0039C158.449 57.3711 158.68 57.668 158.977 57.8945C159.281 58.1211 159.641 58.2852 160.055 58.3867C160.477 58.4883 160.938 58.5391 161.438 58.5391C162.047 58.5391 162.547 58.4531 162.938 58.2812C163.336 58.1094 163.629 57.8711 163.816 57.5664C164.012 57.2617 164.109 56.918 164.109 56.5352ZM173.18 50.7578V65.875H169.805V48.3203H172.934L173.18 50.7578ZM181.207 54.5195V54.7656C181.207 55.6875 181.098 56.543 180.879 57.332C180.668 58.1211 180.355 58.8086 179.941 59.3945C179.527 59.9727 179.012 60.4258 178.395 60.7539C177.785 61.0742 177.082 61.2344 176.285 61.2344C175.512 61.2344 174.84 61.0781 174.27 60.7656C173.699 60.4531 173.219 60.0156 172.828 59.4531C172.445 58.8828 172.137 58.2227 171.902 57.4727C171.668 56.7227 171.488 55.918 171.363 55.0586V54.4141C171.488 53.4922 171.668 52.6484 171.902 51.8828C172.137 51.1094 172.445 50.4414 172.828 49.8789C173.219 49.3086 173.695 48.8672 174.258 48.5547C174.828 48.2422 175.496 48.0859 176.262 48.0859C177.066 48.0859 177.773 48.2383 178.383 48.543C179 48.8477 179.516 49.2852 179.93 49.8555C180.352 50.4258 180.668 51.1055 180.879 51.8945C181.098 52.6836 181.207 53.5586 181.207 54.5195ZM177.82 54.7656V54.5195C177.82 53.9805 177.773 53.4844 177.68 53.0312C177.594 52.5703 177.453 52.168 177.258 51.8242C177.07 51.4805 176.82 51.2148 176.508 51.0273C176.203 50.832 175.832 50.7344 175.395 50.7344C174.934 50.7344 174.539 50.8086 174.211 50.957C173.891 51.1055 173.629 51.3203 173.426 51.6016C173.223 51.8828 173.07 52.2188 172.969 52.6094C172.867 53 172.805 53.4414 172.781 53.9336V55.5625C172.82 56.1406 172.93 56.6602 173.109 57.1211C173.289 57.5742 173.566 57.9336 173.941 58.1992C174.316 58.4648 174.809 58.5977 175.418 58.5977C175.863 58.5977 176.238 58.5 176.543 58.3047C176.848 58.1016 177.094 57.8242 177.281 57.4727C177.477 57.1211 177.613 56.7148 177.691 56.2539C177.777 55.793 177.82 55.2969 177.82 54.7656ZM189.141 61.2344C188.156 61.2344 187.273 61.0781 186.492 60.7656C185.711 60.4453 185.047 60.0039 184.5 59.4414C183.961 58.8789 183.547 58.2266 183.258 57.4844C182.969 56.7344 182.824 55.9375 182.824 55.0938V54.625C182.824 53.6641 182.961 52.7852 183.234 51.9883C183.508 51.1914 183.898 50.5 184.406 49.9141C184.922 49.3281 185.547 48.8789 186.281 48.5664C187.016 48.2461 187.844 48.0859 188.766 48.0859C189.664 48.0859 190.461 48.2344 191.156 48.5312C191.852 48.8281 192.434 49.25 192.902 49.7969C193.379 50.3438 193.738 51 193.98 51.7656C194.223 52.5234 194.344 53.3672 194.344 54.2969V55.7031H184.266V53.4531H191.027V53.1953C191.027 52.7266 190.941 52.3086 190.77 51.9414C190.605 51.5664 190.355 51.2695 190.02 51.0508C189.684 50.832 189.254 50.7227 188.73 50.7227C188.285 50.7227 187.902 50.8203 187.582 51.0156C187.262 51.2109 187 51.4844 186.797 51.8359C186.602 52.1875 186.453 52.6016 186.352 53.0781C186.258 53.5469 186.211 54.0625 186.211 54.625V55.0938C186.211 55.6016 186.281 56.0703 186.422 56.5C186.57 56.9297 186.777 57.3008 187.043 57.6133C187.316 57.9258 187.645 58.168 188.027 58.3398C188.418 58.5117 188.859 58.5977 189.352 58.5977C189.961 58.5977 190.527 58.4805 191.051 58.2461C191.582 58.0039 192.039 57.6406 192.422 57.1562L194.062 58.9375C193.797 59.3203 193.434 59.6875 192.973 60.0391C192.52 60.3906 191.973 60.6797 191.332 60.9062C190.691 61.125 189.961 61.2344 189.141 61.2344ZM203.109 58.1406V52.4922C203.109 52.0859 203.043 51.7383 202.91 51.4492C202.777 51.1523 202.57 50.9219 202.289 50.7578C202.016 50.5938 201.66 50.5117 201.223 50.5117C200.848 50.5117 200.523 50.5781 200.25 50.7109C199.977 50.8359 199.766 51.0195 199.617 51.2617C199.469 51.4961 199.395 51.7734 199.395 52.0938H196.02C196.02 51.5547 196.145 51.043 196.395 50.5586C196.645 50.0742 197.008 49.6484 197.484 49.2812C197.961 48.9062 198.527 48.6133 199.184 48.4023C199.848 48.1914 200.59 48.0859 201.41 48.0859C202.395 48.0859 203.27 48.25 204.035 48.5781C204.801 48.9062 205.402 49.3984 205.84 50.0547C206.285 50.7109 206.508 51.5312 206.508 52.5156V57.9414C206.508 58.6367 206.551 59.207 206.637 59.6523C206.723 60.0898 206.848 60.4727 207.012 60.8008V61H203.602C203.438 60.6562 203.312 60.2266 203.227 59.7109C203.148 59.1875 203.109 58.6641 203.109 58.1406ZM203.555 53.2773L203.578 55.1875H201.691C201.246 55.1875 200.859 55.2383 200.531 55.3398C200.203 55.4414 199.934 55.5859 199.723 55.7734C199.512 55.9531 199.355 56.1641 199.254 56.4062C199.16 56.6484 199.113 56.9141 199.113 57.2031C199.113 57.4922 199.18 57.7539 199.312 57.9883C199.445 58.2148 199.637 58.3945 199.887 58.5273C200.137 58.6523 200.43 58.7148 200.766 58.7148C201.273 58.7148 201.715 58.6133 202.09 58.4102C202.465 58.207 202.754 57.957 202.957 57.6602C203.168 57.3633 203.277 57.082 203.285 56.8164L204.176 58.2461C204.051 58.5664 203.879 58.8984 203.66 59.2422C203.449 59.5859 203.18 59.9102 202.852 60.2148C202.523 60.5117 202.129 60.7578 201.668 60.9531C201.207 61.1406 200.66 61.2344 200.027 61.2344C199.223 61.2344 198.492 61.0742 197.836 60.7539C197.188 60.4258 196.672 59.9766 196.289 59.4062C195.914 58.8281 195.727 58.1719 195.727 57.4375C195.727 56.7734 195.852 56.1836 196.102 55.668C196.352 55.1523 196.719 54.7188 197.203 54.3672C197.695 54.0078 198.309 53.7383 199.043 53.5586C199.777 53.3711 200.629 53.2773 201.598 53.2773H203.555ZM212.484 42.9883V61H209.109V42.9883H212.484ZM220.477 48.3203L214.969 54.6016L212.016 57.5898L210.785 55.1523L213.129 52.1758L216.422 48.3203H220.477ZM216.973 61L213.223 55.1406L215.555 53.1016L220.863 61H216.973Z" fill="#888888"/>
<path d="M118.594 98.4219V104.75H101.086V98.4219H118.594ZM103.828 84.875V119H95.6016V84.875H103.828ZM124.125 84.875V119H115.922V84.875H124.125ZM127.992 106.578V106.086C127.992 104.227 128.258 102.516 128.789 100.953C129.32 99.375 130.102 98.0078 131.133 96.8516C132.164 95.6953 133.438 94.7969 134.953 94.1562C136.469 93.5 138.219 93.1719 140.203 93.1719C142.203 93.1719 143.961 93.5 145.477 94.1562C147.008 94.7969 148.289 95.6953 149.32 96.8516C150.352 98.0078 151.133 99.375 151.664 100.953C152.195 102.516 152.461 104.227 152.461 106.086V106.578C152.461 108.422 152.195 110.133 151.664 111.711C151.133 113.273 150.352 114.641 149.32 115.812C148.289 116.969 147.016 117.867 145.5 118.508C143.984 119.148 142.234 119.469 140.25 119.469C138.266 119.469 136.508 119.148 134.977 118.508C133.445 117.867 132.164 116.969 131.133 115.812C130.102 114.641 129.32 113.273 128.789 111.711C128.258 110.133 127.992 108.422 127.992 106.578ZM135.891 106.086V106.578C135.891 107.531 135.961 108.422 136.102 109.25C136.242 110.078 136.477 110.805 136.805 111.43C137.133 112.039 137.578 112.516 138.141 112.859C138.703 113.203 139.406 113.375 140.25 113.375C141.078 113.375 141.766 113.203 142.312 112.859C142.875 112.516 143.32 112.039 143.648 111.43C143.977 110.805 144.211 110.078 144.352 109.25C144.492 108.422 144.562 107.531 144.562 106.578V106.086C144.562 105.164 144.492 104.297 144.352 103.484C144.211 102.656 143.977 101.93 143.648 101.305C143.32 100.664 142.875 100.164 142.312 99.8047C141.75 99.4453 141.047 99.2656 140.203 99.2656C139.375 99.2656 138.68 99.4453 138.117 99.8047C137.57 100.164 137.133 100.664 136.805 101.305C136.477 101.93 136.242 102.656 136.102 103.484C135.961 104.297 135.891 105.164 135.891 106.086ZM163.688 111.453L168.375 93.6406H173.32L171.562 102.57L166.922 119H162.961L163.688 111.453ZM161.836 93.6406L164.742 111.312L165.07 119H160.266L154.266 93.6406H161.836ZM177.492 110.938L180.422 93.6406H187.992L182.039 119H177.234L177.492 110.938ZM173.883 93.6406L178.617 111.406L179.344 119H175.336L170.789 102.617L169.102 93.6406H173.883ZM218.297 84.875V119H210.07V84.875H218.297ZM228.562 84.875V91.2266H200.039V84.875H228.562ZM225.773 106.578V106.086C225.773 104.227 226.039 102.516 226.57 100.953C227.102 99.375 227.883 98.0078 228.914 96.8516C229.945 95.6953 231.219 94.7969 232.734 94.1562C234.25 93.5 236 93.1719 237.984 93.1719C239.984 93.1719 241.742 93.5 243.258 94.1562C244.789 94.7969 246.07 95.6953 247.102 96.8516C248.133 98.0078 248.914 99.375 249.445 100.953C249.977 102.516 250.242 104.227 250.242 106.086V106.578C250.242 108.422 249.977 110.133 249.445 111.711C248.914 113.273 248.133 114.641 247.102 115.812C246.07 116.969 244.797 117.867 243.281 118.508C241.766 119.148 240.016 119.469 238.031 119.469C236.047 119.469 234.289 119.148 232.758 118.508C231.227 117.867 229.945 116.969 228.914 115.812C227.883 114.641 227.102 113.273 226.57 111.711C226.039 110.133 225.773 108.422 225.773 106.578ZM233.672 106.086V106.578C233.672 107.531 233.742 108.422 233.883 109.25C234.023 110.078 234.258 110.805 234.586 111.43C234.914 112.039 235.359 112.516 235.922 112.859C236.484 113.203 237.188 113.375 238.031 113.375C238.859 113.375 239.547 113.203 240.094 112.859C240.656 112.516 241.102 112.039 241.43 111.43C241.758 110.805 241.992 110.078 242.133 109.25C242.273 108.422 242.344 107.531 242.344 106.578V106.086C242.344 105.164 242.273 104.297 242.133 103.484C241.992 102.656 241.758 101.93 241.43 101.305C241.102 100.664 240.656 100.164 240.094 99.8047C239.531 99.4453 238.828 99.2656 237.984 99.2656C237.156 99.2656 236.461 99.4453 235.898 99.8047C235.352 100.164 234.914 100.664 234.586 101.305C234.258 101.93 234.023 102.656 233.883 103.484C233.742 104.297 233.672 105.164 233.672 106.086ZM266.086 84.875H279.516C282.141 84.875 284.422 85.2656 286.359 86.0469C288.297 86.8281 289.789 87.9844 290.836 89.5156C291.898 91.0469 292.43 92.9375 292.43 95.1875C292.43 97.1406 292.125 98.7734 291.516 100.086C290.906 101.398 290.055 102.484 288.961 103.344C287.883 104.188 286.625 104.883 285.188 105.43L282.492 106.953H271.219L271.172 100.602H279.516C280.562 100.602 281.43 100.414 282.117 100.039C282.805 99.6641 283.32 99.1328 283.664 98.4453C284.023 97.7422 284.203 96.9062 284.203 95.9375C284.203 94.9531 284.023 94.1094 283.664 93.4062C283.305 92.7031 282.773 92.1641 282.07 91.7891C281.383 91.4141 280.531 91.2266 279.516 91.2266H274.312V119H266.086V84.875ZM284.766 119L277.219 103.906L285.938 103.859L293.578 118.648V119H284.766ZM311.836 112.836V93.6406H319.758V119H312.352L311.836 112.836ZM312.586 107.68L314.648 107.633C314.648 109.336 314.445 110.914 314.039 112.367C313.633 113.805 313.031 115.055 312.234 116.117C311.453 117.18 310.484 118.008 309.328 118.602C308.188 119.18 306.867 119.469 305.367 119.469C304.117 119.469 302.969 119.297 301.922 118.953C300.891 118.594 300 118.039 299.25 117.289C298.5 116.523 297.914 115.547 297.492 114.359C297.086 113.156 296.883 111.719 296.883 110.047V93.6406H304.781V110.094C304.781 110.656 304.852 111.141 304.992 111.547C305.133 111.953 305.336 112.297 305.602 112.578C305.867 112.844 306.195 113.047 306.586 113.188C306.992 113.312 307.453 113.375 307.969 113.375C309.156 113.375 310.086 113.125 310.758 112.625C311.43 112.125 311.898 111.445 312.164 110.586C312.445 109.727 312.586 108.758 312.586 107.68ZM331.875 99.0547V119H323.977V93.6406H331.383L331.875 99.0547ZM330.938 105.453L329.086 105.5C329.086 103.562 329.32 101.836 329.789 100.32C330.258 98.7891 330.922 97.4922 331.781 96.4297C332.641 95.3672 333.664 94.5625 334.852 94.0156C336.055 93.4531 337.391 93.1719 338.859 93.1719C340.031 93.1719 341.102 93.3438 342.07 93.6875C343.055 94.0312 343.898 94.5859 344.602 95.3516C345.32 96.1172 345.867 97.1328 346.242 98.3984C346.633 99.6484 346.828 101.195 346.828 103.039V119H338.883V103.016C338.883 102 338.742 101.227 338.461 100.695C338.18 100.148 337.773 99.7734 337.242 99.5703C336.711 99.3672 336.062 99.2656 335.297 99.2656C334.484 99.2656 333.797 99.4219 333.234 99.7344C332.672 100.047 332.219 100.484 331.875 101.047C331.547 101.594 331.305 102.242 331.148 102.992C331.008 103.742 330.938 104.562 330.938 105.453ZM363.773 108.195H357.047C357.047 106.82 357.141 105.609 357.328 104.562C357.531 103.5 357.875 102.547 358.359 101.703C358.844 100.859 359.5 100.078 360.328 99.3594C361.062 98.75 361.695 98.1641 362.227 97.6016C362.758 97.0391 363.164 96.4688 363.445 95.8906C363.727 95.3125 363.867 94.6953 363.867 94.0391C363.867 93.2266 363.75 92.5625 363.516 92.0469C363.297 91.5312 362.961 91.1484 362.508 90.8984C362.07 90.6328 361.516 90.5 360.844 90.5C360.297 90.5 359.781 90.6328 359.297 90.8984C358.828 91.1641 358.445 91.5781 358.148 92.1406C357.852 92.6875 357.688 93.4141 357.656 94.3203H349.711C349.758 91.9922 350.273 90.1016 351.258 88.6484C352.258 87.1797 353.586 86.1094 355.242 85.4375C356.914 84.75 358.781 84.4062 360.844 84.4062C363.125 84.4062 365.086 84.7578 366.727 85.4609C368.367 86.1641 369.625 87.2109 370.5 88.6016C371.375 89.9766 371.812 91.6719 371.812 93.6875C371.812 95.0312 371.555 96.2031 371.039 97.2031C370.539 98.1875 369.859 99.1094 369 99.9688C368.156 100.812 367.211 101.719 366.164 102.688C365.258 103.484 364.641 104.297 364.312 105.125C363.984 105.938 363.805 106.961 363.773 108.195ZM356.086 115.32C356.086 114.195 356.492 113.258 357.305 112.508C358.117 111.742 359.172 111.359 360.469 111.359C361.766 111.359 362.82 111.742 363.633 112.508C364.445 113.258 364.852 114.195 364.852 115.32C364.852 116.445 364.445 117.391 363.633 118.156C362.82 118.906 361.766 119.281 360.469 119.281C359.172 119.281 358.117 118.906 357.305 118.156C356.492 117.391 356.086 116.445 356.086 115.32Z" fill="black"/>
<path d="M1134 0H1348C1356.28 0 1363 6.71573 1363 15V148C1363 156.284 1356.28 163 1348 163H1134V0Z" fill="#5271FF"/>
<path d="M1260.62 78.8847C1263.81 78.8847 1266.93 79.805 1269.59 81.5293C1272.25 83.2536 1274.32 85.7044 1275.54 88.5718C1276.76 91.4391 1277.08 94.5943 1276.46 97.6383C1275.84 100.682 1274.3 103.478 1272.04 105.673C1269.78 107.868 1266.9 109.362 1263.77 109.968C1260.63 110.573 1257.39 110.262 1254.43 109.075C1251.48 107.887 1248.96 105.876 1247.18 103.295C1245.41 100.714 1244.46 97.6806 1244.46 94.5769C1244.46 90.4151 1246.16 86.4237 1249.19 83.4808C1252.22 80.538 1256.33 78.8847 1260.62 78.8847ZM1260.62 73.6539C1256.36 73.6539 1252.19 74.881 1248.65 77.1801C1245.11 79.4791 1242.35 82.7469 1240.72 86.57C1239.09 90.3932 1238.66 94.6001 1239.49 98.6588C1240.32 102.717 1242.37 106.446 1245.39 109.372C1248.4 112.298 1252.24 114.291 1256.41 115.098C1260.59 115.905 1264.92 115.491 1268.86 113.907C1272.79 112.324 1276.16 109.642 1278.52 106.201C1280.89 102.76 1282.15 98.7151 1282.15 94.5769C1282.15 89.0278 1279.88 83.706 1275.85 79.7821C1271.81 75.8583 1266.33 73.6539 1260.62 73.6539Z" fill="white"/>
<path d="M1274.08 47.5H1220.23C1218.8 47.5 1217.43 48.0511 1216.42 49.0321C1215.41 50.013 1214.85 51.3435 1214.85 52.7307V105.038C1214.85 106.426 1215.41 107.756 1216.42 108.737C1217.43 109.718 1218.8 110.269 1220.23 110.269H1231V105.038H1220.23V68.423H1279.46V52.7307C1279.46 51.3435 1278.89 50.013 1277.88 49.0321C1276.87 48.0511 1275.5 47.5 1274.08 47.5ZM1220.23 63.1922V52.7307H1274.08V63.1922H1220.23Z" fill="white"/>
<path d="M1255.23 86.731V102.423L1268.69 94.5771L1255.23 86.731Z" fill="white"/>
</svg>
