<svg width="1363" height="163" viewBox="0 0 1363 163" fill="none" xmlns="http://www.w3.org/2000/svg">
<path d="M0 15C0 6.71573 6.71573 0 15 0H37V163H15C6.71573 163 0 156.284 0 148V15Z" fill="#424242"/>
<rect width="1097" height="163" transform="translate(37)" fill="#F0F0F0"/>
<path d="M101.906 53.9219L94.3945 51.2383V48.0859L104.602 52.375V54.6367L101.906 53.9219ZM94.3945 56.1719L101.918 53.4297L104.602 52.7852V55.0352L94.3945 59.3242V56.1719ZM115.805 56.5352C115.805 56.2305 115.758 55.957 115.664 55.7148C115.578 55.4648 115.414 55.2383 115.172 55.0352C114.93 54.8242 114.59 54.6172 114.152 54.4141C113.715 54.2109 113.148 54 112.453 53.7812C111.68 53.5312 110.945 53.25 110.25 52.9375C109.562 52.625 108.953 52.2617 108.422 51.8477C107.898 51.4258 107.484 50.9375 107.18 50.3828C106.883 49.8281 106.734 49.1836 106.734 48.4492C106.734 47.7383 106.891 47.0938 107.203 46.5156C107.516 45.9297 107.953 45.4297 108.516 45.0156C109.078 44.5938 109.742 44.2695 110.508 44.043C111.281 43.8164 112.129 43.7031 113.051 43.7031C114.309 43.7031 115.406 43.9297 116.344 44.3828C117.281 44.8359 118.008 45.457 118.523 46.2461C119.047 47.0352 119.309 47.9375 119.309 48.9531H115.816C115.816 48.4531 115.711 48.0156 115.5 47.6406C115.297 47.2578 114.984 46.957 114.562 46.7383C114.148 46.5195 113.625 46.4102 112.992 46.4102C112.383 46.4102 111.875 46.5039 111.469 46.6914C111.062 46.8711 110.758 47.1172 110.555 47.4297C110.352 47.7344 110.25 48.0781 110.25 48.4609C110.25 48.75 110.32 49.0117 110.461 49.2461C110.609 49.4805 110.828 49.6992 111.117 49.9023C111.406 50.1055 111.762 50.2969 112.184 50.4766C112.605 50.6562 113.094 50.832 113.648 51.0039C114.578 51.2852 115.395 51.6016 116.098 51.9531C116.809 52.3047 117.402 52.6992 117.879 53.1367C118.355 53.5742 118.715 54.0703 118.957 54.625C119.199 55.1797 119.32 55.8086 119.32 56.5117C119.32 57.2539 119.176 57.918 118.887 58.5039C118.598 59.0898 118.18 59.5859 117.633 59.9922C117.086 60.3984 116.434 60.707 115.676 60.918C114.918 61.1289 114.07 61.2344 113.133 61.2344C112.289 61.2344 111.457 61.125 110.637 60.9062C109.816 60.6797 109.07 60.3398 108.398 59.8867C107.734 59.4336 107.203 58.8555 106.805 58.1523C106.406 57.4492 106.207 56.6172 106.207 55.6562H109.734C109.734 56.1875 109.816 56.6367 109.98 57.0039C110.145 57.3711 110.375 57.668 110.672 57.8945C110.977 58.1211 111.336 58.2852 111.75 58.3867C112.172 58.4883 112.633 58.5391 113.133 58.5391C113.742 58.5391 114.242 58.4531 114.633 58.2812C115.031 58.1094 115.324 57.8711 115.512 57.5664C115.707 57.2617 115.805 56.918 115.805 56.5352ZM125.062 48.3203V61H121.676V48.3203H125.062ZM121.465 45.0156C121.465 44.5234 121.637 44.1172 121.98 43.7969C122.324 43.4766 122.785 43.3164 123.363 43.3164C123.934 43.3164 124.391 43.4766 124.734 43.7969C125.086 44.1172 125.262 44.5234 125.262 45.0156C125.262 45.5078 125.086 45.9141 124.734 46.2344C124.391 46.5547 123.934 46.7148 123.363 46.7148C122.785 46.7148 122.324 46.5547 121.98 46.2344C121.637 45.9141 121.465 45.5078 121.465 45.0156ZM135.879 48.3203H138.938V60.5781C138.938 61.7344 138.68 62.7148 138.164 63.5195C137.656 64.332 136.945 64.9453 136.031 65.3594C135.117 65.7812 134.055 65.9922 132.844 65.9922C132.312 65.9922 131.75 65.9219 131.156 65.7812C130.57 65.6406 130.008 65.4219 129.469 65.125C128.938 64.8281 128.492 64.4531 128.133 64L129.621 62.0078C130.012 62.4609 130.465 62.8125 130.98 63.0625C131.496 63.3203 132.066 63.4492 132.691 63.4492C133.301 63.4492 133.816 63.3359 134.238 63.1094C134.66 62.8906 134.984 62.5664 135.211 62.1367C135.438 61.7148 135.551 61.2031 135.551 60.6016V51.25L135.879 48.3203ZM127.348 54.8125V54.5664C127.348 53.5977 127.465 52.7188 127.699 51.9297C127.941 51.1328 128.281 50.4492 128.719 49.8789C129.164 49.3086 129.703 48.8672 130.336 48.5547C130.969 48.2422 131.684 48.0859 132.48 48.0859C133.324 48.0859 134.031 48.2422 134.602 48.5547C135.172 48.8672 135.641 49.3125 136.008 49.8906C136.375 50.4609 136.66 51.1367 136.863 51.918C137.074 52.6914 137.238 53.5391 137.355 54.4609V55C137.238 55.8828 137.062 56.7031 136.828 57.4609C136.594 58.2188 136.285 58.8828 135.902 59.4531C135.52 60.0156 135.043 60.4531 134.473 60.7656C133.91 61.0781 133.238 61.2344 132.457 61.2344C131.676 61.2344 130.969 61.0742 130.336 60.7539C129.711 60.4336 129.176 59.9844 128.73 59.4062C128.285 58.8281 127.941 58.1484 127.699 57.3672C127.465 56.5859 127.348 55.7344 127.348 54.8125ZM130.723 54.5664V54.8125C130.723 55.3359 130.773 55.8242 130.875 56.2773C130.977 56.7305 131.133 57.1328 131.344 57.4844C131.562 57.8281 131.832 58.0977 132.152 58.293C132.48 58.4805 132.867 58.5742 133.312 58.5742C133.93 58.5742 134.434 58.4453 134.824 58.1875C135.215 57.9219 135.508 57.5586 135.703 57.0977C135.898 56.6367 136.012 56.1055 136.043 55.5039V53.9688C136.027 53.4766 135.961 53.0352 135.844 52.6445C135.727 52.2461 135.562 51.9062 135.352 51.625C135.141 51.3438 134.867 51.125 134.531 50.9688C134.195 50.8125 133.797 50.7344 133.336 50.7344C132.891 50.7344 132.504 50.8359 132.176 51.0391C131.855 51.2344 131.586 51.5039 131.367 51.8477C131.156 52.1914 130.996 52.5977 130.887 53.0664C130.777 53.5273 130.723 54.0273 130.723 54.5664ZM144.867 51.0273V61H141.492V48.3203H144.656L144.867 51.0273ZM144.375 54.2148H143.461C143.461 53.2773 143.582 52.4336 143.824 51.6836C144.066 50.9258 144.406 50.2812 144.844 49.75C145.281 49.2109 145.801 48.8008 146.402 48.5195C147.012 48.2305 147.691 48.0859 148.441 48.0859C149.035 48.0859 149.578 48.1719 150.07 48.3438C150.562 48.5156 150.984 48.7891 151.336 49.1641C151.695 49.5391 151.969 50.0352 152.156 50.6523C152.352 51.2695 152.449 52.0234 152.449 52.9141V61H149.051V52.9023C149.051 52.3398 148.973 51.9023 148.816 51.5898C148.66 51.2773 148.43 51.0586 148.125 50.9336C147.828 50.8008 147.461 50.7344 147.023 50.7344C146.57 50.7344 146.176 50.8242 145.84 51.0039C145.512 51.1836 145.238 51.4336 145.02 51.7539C144.809 52.0664 144.648 52.4336 144.539 52.8555C144.43 53.2773 144.375 53.7305 144.375 54.2148ZM164.109 56.5352C164.109 56.2305 164.062 55.957 163.969 55.7148C163.883 55.4648 163.719 55.2383 163.477 55.0352C163.234 54.8242 162.895 54.6172 162.457 54.4141C162.02 54.2109 161.453 54 160.758 53.7812C159.984 53.5312 159.25 53.25 158.555 52.9375C157.867 52.625 157.258 52.2617 156.727 51.8477C156.203 51.4258 155.789 50.9375 155.484 50.3828C155.188 49.8281 155.039 49.1836 155.039 48.4492C155.039 47.7383 155.195 47.0938 155.508 46.5156C155.82 45.9297 156.258 45.4297 156.82 45.0156C157.383 44.5938 158.047 44.2695 158.812 44.043C159.586 43.8164 160.434 43.7031 161.355 43.7031C162.613 43.7031 163.711 43.9297 164.648 44.3828C165.586 44.8359 166.312 45.457 166.828 46.2461C167.352 47.0352 167.613 47.9375 167.613 48.9531H164.121C164.121 48.4531 164.016 48.0156 163.805 47.6406C163.602 47.2578 163.289 46.957 162.867 46.7383C162.453 46.5195 161.93 46.4102 161.297 46.4102C160.688 46.4102 160.18 46.5039 159.773 46.6914C159.367 46.8711 159.062 47.1172 158.859 47.4297C158.656 47.7344 158.555 48.0781 158.555 48.4609C158.555 48.75 158.625 49.0117 158.766 49.2461C158.914 49.4805 159.133 49.6992 159.422 49.9023C159.711 50.1055 160.066 50.2969 160.488 50.4766C160.91 50.6562 161.398 50.832 161.953 51.0039C162.883 51.2852 163.699 51.6016 164.402 51.9531C165.113 52.3047 165.707 52.6992 166.184 53.1367C166.66 53.5742 167.02 54.0703 167.262 54.625C167.504 55.1797 167.625 55.8086 167.625 56.5117C167.625 57.2539 167.48 57.918 167.191 58.5039C166.902 59.0898 166.484 59.5859 165.938 59.9922C165.391 60.3984 164.738 60.707 163.98 60.918C163.223 61.1289 162.375 61.2344 161.438 61.2344C160.594 61.2344 159.762 61.125 158.941 60.9062C158.121 60.6797 157.375 60.3398 156.703 59.8867C156.039 59.4336 155.508 58.8555 155.109 58.1523C154.711 57.4492 154.512 56.6172 154.512 55.6562H158.039C158.039 56.1875 158.121 56.6367 158.285 57.0039C158.449 57.3711 158.68 57.668 158.977 57.8945C159.281 58.1211 159.641 58.2852 160.055 58.3867C160.477 58.4883 160.938 58.5391 161.438 58.5391C162.047 58.5391 162.547 58.4531 162.938 58.2812C163.336 58.1094 163.629 57.8711 163.816 57.5664C164.012 57.2617 164.109 56.918 164.109 56.5352ZM173.18 50.7578V65.875H169.805V48.3203H172.934L173.18 50.7578ZM181.207 54.5195V54.7656C181.207 55.6875 181.098 56.543 180.879 57.332C180.668 58.1211 180.355 58.8086 179.941 59.3945C179.527 59.9727 179.012 60.4258 178.395 60.7539C177.785 61.0742 177.082 61.2344 176.285 61.2344C175.512 61.2344 174.84 61.0781 174.27 60.7656C173.699 60.4531 173.219 60.0156 172.828 59.4531C172.445 58.8828 172.137 58.2227 171.902 57.4727C171.668 56.7227 171.488 55.918 171.363 55.0586V54.4141C171.488 53.4922 171.668 52.6484 171.902 51.8828C172.137 51.1094 172.445 50.4414 172.828 49.8789C173.219 49.3086 173.695 48.8672 174.258 48.5547C174.828 48.2422 175.496 48.0859 176.262 48.0859C177.066 48.0859 177.773 48.2383 178.383 48.543C179 48.8477 179.516 49.2852 179.93 49.8555C180.352 50.4258 180.668 51.1055 180.879 51.8945C181.098 52.6836 181.207 53.5586 181.207 54.5195ZM177.82 54.7656V54.5195C177.82 53.9805 177.773 53.4844 177.68 53.0312C177.594 52.5703 177.453 52.168 177.258 51.8242C177.07 51.4805 176.82 51.2148 176.508 51.0273C176.203 50.832 175.832 50.7344 175.395 50.7344C174.934 50.7344 174.539 50.8086 174.211 50.957C173.891 51.1055 173.629 51.3203 173.426 51.6016C173.223 51.8828 173.07 52.2188 172.969 52.6094C172.867 53 172.805 53.4414 172.781 53.9336V55.5625C172.82 56.1406 172.93 56.6602 173.109 57.1211C173.289 57.5742 173.566 57.9336 173.941 58.1992C174.316 58.4648 174.809 58.5977 175.418 58.5977C175.863 58.5977 176.238 58.5 176.543 58.3047C176.848 58.1016 177.094 57.8242 177.281 57.4727C177.477 57.1211 177.613 56.7148 177.691 56.2539C177.777 55.793 177.82 55.2969 177.82 54.7656ZM189.141 61.2344C188.156 61.2344 187.273 61.0781 186.492 60.7656C185.711 60.4453 185.047 60.0039 184.5 59.4414C183.961 58.8789 183.547 58.2266 183.258 57.4844C182.969 56.7344 182.824 55.9375 182.824 55.0938V54.625C182.824 53.6641 182.961 52.7852 183.234 51.9883C183.508 51.1914 183.898 50.5 184.406 49.9141C184.922 49.3281 185.547 48.8789 186.281 48.5664C187.016 48.2461 187.844 48.0859 188.766 48.0859C189.664 48.0859 190.461 48.2344 191.156 48.5312C191.852 48.8281 192.434 49.25 192.902 49.7969C193.379 50.3438 193.738 51 193.98 51.7656C194.223 52.5234 194.344 53.3672 194.344 54.2969V55.7031H184.266V53.4531H191.027V53.1953C191.027 52.7266 190.941 52.3086 190.77 51.9414C190.605 51.5664 190.355 51.2695 190.02 51.0508C189.684 50.832 189.254 50.7227 188.73 50.7227C188.285 50.7227 187.902 50.8203 187.582 51.0156C187.262 51.2109 187 51.4844 186.797 51.8359C186.602 52.1875 186.453 52.6016 186.352 53.0781C186.258 53.5469 186.211 54.0625 186.211 54.625V55.0938C186.211 55.6016 186.281 56.0703 186.422 56.5C186.57 56.9297 186.777 57.3008 187.043 57.6133C187.316 57.9258 187.645 58.168 188.027 58.3398C188.418 58.5117 188.859 58.5977 189.352 58.5977C189.961 58.5977 190.527 58.4805 191.051 58.2461C191.582 58.0039 192.039 57.6406 192.422 57.1562L194.062 58.9375C193.797 59.3203 193.434 59.6875 192.973 60.0391C192.52 60.3906 191.973 60.6797 191.332 60.9062C190.691 61.125 189.961 61.2344 189.141 61.2344ZM203.109 58.1406V52.4922C203.109 52.0859 203.043 51.7383 202.91 51.4492C202.777 51.1523 202.57 50.9219 202.289 50.7578C202.016 50.5938 201.66 50.5117 201.223 50.5117C200.848 50.5117 200.523 50.5781 200.25 50.7109C199.977 50.8359 199.766 51.0195 199.617 51.2617C199.469 51.4961 199.395 51.7734 199.395 52.0938H196.02C196.02 51.5547 196.145 51.043 196.395 50.5586C196.645 50.0742 197.008 49.6484 197.484 49.2812C197.961 48.9062 198.527 48.6133 199.184 48.4023C199.848 48.1914 200.59 48.0859 201.41 48.0859C202.395 48.0859 203.27 48.25 204.035 48.5781C204.801 48.9062 205.402 49.3984 205.84 50.0547C206.285 50.7109 206.508 51.5312 206.508 52.5156V57.9414C206.508 58.6367 206.551 59.207 206.637 59.6523C206.723 60.0898 206.848 60.4727 207.012 60.8008V61H203.602C203.438 60.6562 203.312 60.2266 203.227 59.7109C203.148 59.1875 203.109 58.6641 203.109 58.1406ZM203.555 53.2773L203.578 55.1875H201.691C201.246 55.1875 200.859 55.2383 200.531 55.3398C200.203 55.4414 199.934 55.5859 199.723 55.7734C199.512 55.9531 199.355 56.1641 199.254 56.4062C199.16 56.6484 199.113 56.9141 199.113 57.2031C199.113 57.4922 199.18 57.7539 199.312 57.9883C199.445 58.2148 199.637 58.3945 199.887 58.5273C200.137 58.6523 200.43 58.7148 200.766 58.7148C201.273 58.7148 201.715 58.6133 202.09 58.4102C202.465 58.207 202.754 57.957 202.957 57.6602C203.168 57.3633 203.277 57.082 203.285 56.8164L204.176 58.2461C204.051 58.5664 203.879 58.8984 203.66 59.2422C203.449 59.5859 203.18 59.9102 202.852 60.2148C202.523 60.5117 202.129 60.7578 201.668 60.9531C201.207 61.1406 200.66 61.2344 200.027 61.2344C199.223 61.2344 198.492 61.0742 197.836 60.7539C197.188 60.4258 196.672 59.9766 196.289 59.4062C195.914 58.8281 195.727 58.1719 195.727 57.4375C195.727 56.7734 195.852 56.1836 196.102 55.668C196.352 55.1523 196.719 54.7188 197.203 54.3672C197.695 54.0078 198.309 53.7383 199.043 53.5586C199.777 53.3711 200.629 53.2773 201.598 53.2773H203.555ZM212.484 42.9883V61H209.109V42.9883H212.484ZM220.477 48.3203L214.969 54.6016L212.016 57.5898L210.785 55.1523L213.129 52.1758L216.422 48.3203H220.477ZM216.973 61L213.223 55.1406L215.555 53.1016L220.863 61H216.973Z" fill="#888888"/>
<path d="M114.117 84.875H122.344V107.164C122.344 109.82 121.789 112.07 120.68 113.914C119.57 115.742 118.016 117.125 116.016 118.062C114.016 119 111.664 119.469 108.961 119.469C106.289 119.469 103.938 119 101.906 118.062C99.8906 117.125 98.3125 115.742 97.1719 113.914C96.0469 112.07 95.4844 109.82 95.4844 107.164V84.875H103.734V107.164C103.734 108.57 103.938 109.719 104.344 110.609C104.75 111.484 105.344 112.125 106.125 112.531C106.906 112.938 107.852 113.141 108.961 113.141C110.086 113.141 111.031 112.938 111.797 112.531C112.562 112.125 113.141 111.484 113.531 110.609C113.922 109.719 114.117 108.57 114.117 107.164V84.875ZM134.906 99.0547V119H127.008V93.6406H134.414L134.906 99.0547ZM133.969 105.453L132.117 105.5C132.117 103.562 132.352 101.836 132.82 100.32C133.289 98.7891 133.953 97.4922 134.812 96.4297C135.672 95.3672 136.695 94.5625 137.883 94.0156C139.086 93.4531 140.422 93.1719 141.891 93.1719C143.062 93.1719 144.133 93.3438 145.102 93.6875C146.086 94.0312 146.93 94.5859 147.633 95.3516C148.352 96.1172 148.898 97.1328 149.273 98.3984C149.664 99.6484 149.859 101.195 149.859 103.039V119H141.914V103.016C141.914 102 141.773 101.227 141.492 100.695C141.211 100.148 140.805 99.7734 140.273 99.5703C139.742 99.3672 139.094 99.2656 138.328 99.2656C137.516 99.2656 136.828 99.4219 136.266 99.7344C135.703 100.047 135.25 100.484 134.906 101.047C134.578 101.594 134.336 102.242 134.18 102.992C134.039 103.742 133.969 104.562 133.969 105.453ZM162.586 93.6406V119H154.664V93.6406H162.586ZM154.195 87.1016C154.195 85.9766 154.602 85.0547 155.414 84.3359C156.227 83.6172 157.281 83.2578 158.578 83.2578C159.875 83.2578 160.93 83.6172 161.742 84.3359C162.555 85.0547 162.961 85.9766 162.961 87.1016C162.961 88.2266 162.555 89.1484 161.742 89.8672C160.93 90.5859 159.875 90.9453 158.578 90.9453C157.281 90.9453 156.227 90.5859 155.414 89.8672C154.602 89.1484 154.195 88.2266 154.195 87.1016ZM180.82 93.6406V99.125H165.539V93.6406H180.82ZM168.75 87.3359H176.648V110.727C176.648 111.398 176.727 111.922 176.883 112.297C177.039 112.656 177.305 112.914 177.68 113.07C178.07 113.211 178.586 113.281 179.227 113.281C179.68 113.281 180.055 113.273 180.352 113.258C180.648 113.227 180.93 113.188 181.195 113.141V118.789C180.523 119.008 179.82 119.172 179.086 119.281C178.352 119.406 177.57 119.469 176.742 119.469C175.055 119.469 173.609 119.203 172.406 118.672C171.219 118.141 170.312 117.305 169.688 116.164C169.062 115.023 168.75 113.539 168.75 111.711V87.3359ZM211.406 84.875V119H203.18V84.875H211.406ZM221.672 84.875V91.2266H193.148V84.875H221.672ZM234.961 119.469C232.898 119.469 231.055 119.148 229.43 118.508C227.805 117.852 226.43 116.953 225.305 115.812C224.195 114.672 223.344 113.359 222.75 111.875C222.172 110.391 221.883 108.82 221.883 107.164V106.273C221.883 104.414 222.141 102.695 222.656 101.117C223.172 99.5234 223.938 98.1328 224.953 96.9453C225.969 95.7578 227.242 94.8359 228.773 94.1797C230.305 93.5078 232.086 93.1719 234.117 93.1719C235.914 93.1719 237.523 93.4609 238.945 94.0391C240.367 94.6172 241.57 95.4453 242.555 96.5234C243.555 97.6016 244.312 98.9062 244.828 100.438C245.359 101.969 245.625 103.688 245.625 105.594V108.805H224.906V103.859H237.914V103.25C237.93 102.406 237.781 101.688 237.469 101.094C237.172 100.5 236.734 100.047 236.156 99.7344C235.578 99.4219 234.875 99.2656 234.047 99.2656C233.188 99.2656 232.477 99.4531 231.914 99.8281C231.367 100.203 230.938 100.719 230.625 101.375C230.328 102.016 230.117 102.758 229.992 103.602C229.867 104.445 229.805 105.336 229.805 106.273V107.164C229.805 108.102 229.93 108.953 230.18 109.719C230.445 110.484 230.82 111.141 231.305 111.688C231.805 112.219 232.398 112.633 233.086 112.93C233.789 113.227 234.586 113.375 235.477 113.375C236.555 113.375 237.617 113.172 238.664 112.766C239.711 112.359 240.609 111.688 241.359 110.75L244.945 115.016C244.43 115.75 243.695 116.461 242.742 117.148C241.805 117.836 240.68 118.398 239.367 118.836C238.055 119.258 236.586 119.469 234.961 119.469ZM262.125 111.875C262.125 111.438 261.977 111.062 261.68 110.75C261.398 110.422 260.898 110.125 260.18 109.859C259.461 109.578 258.453 109.297 257.156 109.016C255.922 108.75 254.758 108.398 253.664 107.961C252.586 107.523 251.641 106.992 250.828 106.367C250.016 105.742 249.375 105 248.906 104.141C248.453 103.281 248.227 102.297 248.227 101.188C248.227 100.109 248.453 99.0938 248.906 98.1406C249.375 97.1719 250.055 96.3203 250.945 95.5859C251.852 94.8359 252.953 94.25 254.25 93.8281C255.547 93.3906 257.023 93.1719 258.68 93.1719C260.961 93.1719 262.93 93.5234 264.586 94.2266C266.242 94.9141 267.516 95.8828 268.406 97.1328C269.312 98.3672 269.766 99.7969 269.766 101.422H261.867C261.867 100.781 261.758 100.234 261.539 99.7812C261.336 99.3281 261 98.9844 260.531 98.75C260.062 98.5 259.438 98.375 258.656 98.375C258.109 98.375 257.609 98.4766 257.156 98.6797C256.719 98.8828 256.367 99.1641 256.102 99.5234C255.836 99.8828 255.703 100.305 255.703 100.789C255.703 101.133 255.781 101.445 255.938 101.727C256.109 101.992 256.367 102.242 256.711 102.477C257.055 102.695 257.492 102.898 258.023 103.086C258.555 103.258 259.195 103.414 259.945 103.555C261.648 103.867 263.242 104.312 264.727 104.891C266.211 105.469 267.414 106.289 268.336 107.352C269.273 108.414 269.742 109.844 269.742 111.641C269.742 112.766 269.484 113.805 268.969 114.758C268.453 115.695 267.711 116.523 266.742 117.242C265.773 117.945 264.609 118.492 263.25 118.883C261.891 119.273 260.359 119.469 258.656 119.469C256.234 119.469 254.188 119.039 252.516 118.18C250.844 117.305 249.578 116.211 248.719 114.898C247.875 113.57 247.453 112.227 247.453 110.867H254.812C254.844 111.648 255.031 112.289 255.375 112.789C255.734 113.289 256.211 113.656 256.805 113.891C257.398 114.125 258.086 114.242 258.867 114.242C259.586 114.242 260.18 114.141 260.648 113.938C261.133 113.734 261.5 113.461 261.75 113.117C262 112.758 262.125 112.344 262.125 111.875ZM286.805 93.6406V99.125H271.523V93.6406H286.805ZM274.734 87.3359H282.633V110.727C282.633 111.398 282.711 111.922 282.867 112.297C283.023 112.656 283.289 112.914 283.664 113.07C284.055 113.211 284.57 113.281 285.211 113.281C285.664 113.281 286.039 113.273 286.336 113.258C286.633 113.227 286.914 113.188 287.18 113.141V118.789C286.508 119.008 285.805 119.172 285.07 119.281C284.336 119.406 283.555 119.469 282.727 119.469C281.039 119.469 279.594 119.203 278.391 118.672C277.203 118.141 276.297 117.305 275.672 116.164C275.047 115.023 274.734 113.539 274.734 111.711V87.3359ZM298.289 93.6406V119H290.367V93.6406H298.289ZM289.898 87.1016C289.898 85.9766 290.305 85.0547 291.117 84.3359C291.93 83.6172 292.984 83.2578 294.281 83.2578C295.578 83.2578 296.633 83.6172 297.445 84.3359C298.258 85.0547 298.664 85.9766 298.664 87.1016C298.664 88.2266 298.258 89.1484 297.445 89.8672C296.633 90.5859 295.578 90.9453 294.281 90.9453C292.984 90.9453 291.93 90.5859 291.117 89.8672C290.305 89.1484 289.898 88.2266 289.898 87.1016ZM310.922 99.0547V119H303.023V93.6406H310.43L310.922 99.0547ZM309.984 105.453L308.133 105.5C308.133 103.562 308.367 101.836 308.836 100.32C309.305 98.7891 309.969 97.4922 310.828 96.4297C311.688 95.3672 312.711 94.5625 313.898 94.0156C315.102 93.4531 316.438 93.1719 317.906 93.1719C319.078 93.1719 320.148 93.3438 321.117 93.6875C322.102 94.0312 322.945 94.5859 323.648 95.3516C324.367 96.1172 324.914 97.1328 325.289 98.3984C325.68 99.6484 325.875 101.195 325.875 103.039V119H317.93V103.016C317.93 102 317.789 101.227 317.508 100.695C317.227 100.148 316.82 99.7734 316.289 99.5703C315.758 99.3672 315.109 99.2656 314.344 99.2656C313.531 99.2656 312.844 99.4219 312.281 99.7344C311.719 100.047 311.266 100.484 310.922 101.047C310.594 101.594 310.352 102.242 310.195 102.992C310.055 103.742 309.984 104.562 309.984 105.453ZM346.195 93.6406H353.367V118.016C353.367 120.359 352.828 122.344 351.75 123.969C350.672 125.609 349.164 126.852 347.227 127.695C345.305 128.555 343.055 128.984 340.477 128.984C339.336 128.984 338.172 128.836 336.984 128.539C335.797 128.258 334.688 127.836 333.656 127.273C332.625 126.711 331.758 126.016 331.055 125.188L334.359 120.547C335 121.266 335.805 121.875 336.773 122.375C337.742 122.891 338.883 123.148 340.195 123.148C341.336 123.148 342.289 122.945 343.055 122.539C343.836 122.133 344.43 121.539 344.836 120.758C345.242 119.992 345.445 119.062 345.445 117.969V99.6406L346.195 93.6406ZM329.344 106.625V106.133C329.344 104.211 329.578 102.461 330.047 100.883C330.531 99.2891 331.219 97.9219 332.109 96.7812C333.016 95.625 334.109 94.7344 335.391 94.1094C336.672 93.4844 338.117 93.1719 339.727 93.1719C341.461 93.1719 342.883 93.5078 343.992 94.1797C345.117 94.8359 346.016 95.7578 346.688 96.9453C347.375 98.1328 347.906 99.5234 348.281 101.117C348.672 102.695 349 104.398 349.266 106.227V106.812C349 108.531 348.633 110.156 348.164 111.688C347.711 113.203 347.117 114.547 346.383 115.719C345.648 116.891 344.727 117.812 343.617 118.484C342.523 119.141 341.211 119.469 339.68 119.469C338.086 119.469 336.648 119.148 335.367 118.508C334.102 117.867 333.016 116.969 332.109 115.812C331.219 114.656 330.531 113.297 330.047 111.734C329.578 110.172 329.344 108.469 329.344 106.625ZM337.242 106.133V106.625C337.242 107.578 337.328 108.461 337.5 109.273C337.688 110.086 337.969 110.805 338.344 111.43C338.719 112.039 339.18 112.516 339.727 112.859C340.289 113.203 340.945 113.375 341.695 113.375C342.836 113.375 343.758 113.133 344.461 112.648C345.164 112.164 345.672 111.477 345.984 110.586C346.297 109.695 346.43 108.648 346.383 107.445V105.594C346.414 104.562 346.344 103.656 346.172 102.875C346 102.078 345.727 101.414 345.352 100.883C344.992 100.352 344.508 99.9531 343.898 99.6875C343.305 99.4062 342.586 99.2656 341.742 99.2656C341.008 99.2656 340.359 99.4375 339.797 99.7812C339.234 100.125 338.766 100.609 338.391 101.234C338.016 101.844 337.727 102.57 337.523 103.414C337.336 104.242 337.242 105.148 337.242 106.133Z" fill="black"/>
<path d="M1134 0H1348C1356.28 0 1363 6.71573 1363 15V148C1363 156.284 1356.28 163 1348 163H1134V0Z" fill="#5271FF"/>
<path d="M1210.62 43.625H1286.38V119.375H1210.62V43.625Z" fill="white" fill-opacity="0.01"/>
<path d="M1276.91 72.0312V105.172C1276.91 107.787 1274.79 109.906 1272.17 109.906H1224.83C1222.21 109.906 1220.09 107.787 1220.09 105.172V57.8281C1220.09 55.2134 1222.21 53.0938 1224.83 53.0938H1261.12" stroke="white" stroke-width="7.24" stroke-linecap="round" stroke-linejoin="round"/>
<path d="M1232.72 75.1875L1248.5 87.8125L1276.91 53.0938" stroke="white" stroke-width="7.24" stroke-linecap="round" stroke-linejoin="round"/>
</svg>
