<svg width="1363" height="163" viewBox="0 0 1363 163" fill="none" xmlns="http://www.w3.org/2000/svg">
<path d="M0 15C0 6.71573 6.71573 0 15 0H37V163H15C6.71573 163 0 156.284 0 148V15Z" fill="#424242"/>
<rect width="1097" height="163" transform="translate(37)" fill="#F0F0F0"/>
<path d="M101.906 53.9219L94.3945 51.2383V48.0859L104.602 52.375V54.6367L101.906 53.9219ZM94.3945 56.1719L101.918 53.4297L104.602 52.7852V55.0352L94.3945 59.3242V56.1719ZM115.805 56.5352C115.805 56.2305 115.758 55.957 115.664 55.7148C115.578 55.4648 115.414 55.2383 115.172 55.0352C114.93 54.8242 114.59 54.6172 114.152 54.4141C113.715 54.2109 113.148 54 112.453 53.7812C111.68 53.5312 110.945 53.25 110.25 52.9375C109.562 52.625 108.953 52.2617 108.422 51.8477C107.898 51.4258 107.484 50.9375 107.18 50.3828C106.883 49.8281 106.734 49.1836 106.734 48.4492C106.734 47.7383 106.891 47.0938 107.203 46.5156C107.516 45.9297 107.953 45.4297 108.516 45.0156C109.078 44.5938 109.742 44.2695 110.508 44.043C111.281 43.8164 112.129 43.7031 113.051 43.7031C114.309 43.7031 115.406 43.9297 116.344 44.3828C117.281 44.8359 118.008 45.457 118.523 46.2461C119.047 47.0352 119.309 47.9375 119.309 48.9531H115.816C115.816 48.4531 115.711 48.0156 115.5 47.6406C115.297 47.2578 114.984 46.957 114.562 46.7383C114.148 46.5195 113.625 46.4102 112.992 46.4102C112.383 46.4102 111.875 46.5039 111.469 46.6914C111.062 46.8711 110.758 47.1172 110.555 47.4297C110.352 47.7344 110.25 48.0781 110.25 48.4609C110.25 48.75 110.32 49.0117 110.461 49.2461C110.609 49.4805 110.828 49.6992 111.117 49.9023C111.406 50.1055 111.762 50.2969 112.184 50.4766C112.605 50.6562 113.094 50.832 113.648 51.0039C114.578 51.2852 115.395 51.6016 116.098 51.9531C116.809 52.3047 117.402 52.6992 117.879 53.1367C118.355 53.5742 118.715 54.0703 118.957 54.625C119.199 55.1797 119.32 55.8086 119.32 56.5117C119.32 57.2539 119.176 57.918 118.887 58.5039C118.598 59.0898 118.18 59.5859 117.633 59.9922C117.086 60.3984 116.434 60.707 115.676 60.918C114.918 61.1289 114.07 61.2344 113.133 61.2344C112.289 61.2344 111.457 61.125 110.637 60.9062C109.816 60.6797 109.07 60.3398 108.398 59.8867C107.734 59.4336 107.203 58.8555 106.805 58.1523C106.406 57.4492 106.207 56.6172 106.207 55.6562H109.734C109.734 56.1875 109.816 56.6367 109.98 57.0039C110.145 57.3711 110.375 57.668 110.672 57.8945C110.977 58.1211 111.336 58.2852 111.75 58.3867C112.172 58.4883 112.633 58.5391 113.133 58.5391C113.742 58.5391 114.242 58.4531 114.633 58.2812C115.031 58.1094 115.324 57.8711 115.512 57.5664C115.707 57.2617 115.805 56.918 115.805 56.5352ZM125.062 48.3203V61H121.676V48.3203H125.062ZM121.465 45.0156C121.465 44.5234 121.637 44.1172 121.98 43.7969C122.324 43.4766 122.785 43.3164 123.363 43.3164C123.934 43.3164 124.391 43.4766 124.734 43.7969C125.086 44.1172 125.262 44.5234 125.262 45.0156C125.262 45.5078 125.086 45.9141 124.734 46.2344C124.391 46.5547 123.934 46.7148 123.363 46.7148C122.785 46.7148 122.324 46.5547 121.98 46.2344C121.637 45.9141 121.465 45.5078 121.465 45.0156ZM135.879 48.3203H138.938V60.5781C138.938 61.7344 138.68 62.7148 138.164 63.5195C137.656 64.332 136.945 64.9453 136.031 65.3594C135.117 65.7812 134.055 65.9922 132.844 65.9922C132.312 65.9922 131.75 65.9219 131.156 65.7812C130.57 65.6406 130.008 65.4219 129.469 65.125C128.938 64.8281 128.492 64.4531 128.133 64L129.621 62.0078C130.012 62.4609 130.465 62.8125 130.98 63.0625C131.496 63.3203 132.066 63.4492 132.691 63.4492C133.301 63.4492 133.816 63.3359 134.238 63.1094C134.66 62.8906 134.984 62.5664 135.211 62.1367C135.438 61.7148 135.551 61.2031 135.551 60.6016V51.25L135.879 48.3203ZM127.348 54.8125V54.5664C127.348 53.5977 127.465 52.7188 127.699 51.9297C127.941 51.1328 128.281 50.4492 128.719 49.8789C129.164 49.3086 129.703 48.8672 130.336 48.5547C130.969 48.2422 131.684 48.0859 132.48 48.0859C133.324 48.0859 134.031 48.2422 134.602 48.5547C135.172 48.8672 135.641 49.3125 136.008 49.8906C136.375 50.4609 136.66 51.1367 136.863 51.918C137.074 52.6914 137.238 53.5391 137.355 54.4609V55C137.238 55.8828 137.062 56.7031 136.828 57.4609C136.594 58.2188 136.285 58.8828 135.902 59.4531C135.52 60.0156 135.043 60.4531 134.473 60.7656C133.91 61.0781 133.238 61.2344 132.457 61.2344C131.676 61.2344 130.969 61.0742 130.336 60.7539C129.711 60.4336 129.176 59.9844 128.73 59.4062C128.285 58.8281 127.941 58.1484 127.699 57.3672C127.465 56.5859 127.348 55.7344 127.348 54.8125ZM130.723 54.5664V54.8125C130.723 55.3359 130.773 55.8242 130.875 56.2773C130.977 56.7305 131.133 57.1328 131.344 57.4844C131.562 57.8281 131.832 58.0977 132.152 58.293C132.48 58.4805 132.867 58.5742 133.312 58.5742C133.93 58.5742 134.434 58.4453 134.824 58.1875C135.215 57.9219 135.508 57.5586 135.703 57.0977C135.898 56.6367 136.012 56.1055 136.043 55.5039V53.9688C136.027 53.4766 135.961 53.0352 135.844 52.6445C135.727 52.2461 135.562 51.9062 135.352 51.625C135.141 51.3438 134.867 51.125 134.531 50.9688C134.195 50.8125 133.797 50.7344 133.336 50.7344C132.891 50.7344 132.504 50.8359 132.176 51.0391C131.855 51.2344 131.586 51.5039 131.367 51.8477C131.156 52.1914 130.996 52.5977 130.887 53.0664C130.777 53.5273 130.723 54.0273 130.723 54.5664ZM144.867 51.0273V61H141.492V48.3203H144.656L144.867 51.0273ZM144.375 54.2148H143.461C143.461 53.2773 143.582 52.4336 143.824 51.6836C144.066 50.9258 144.406 50.2812 144.844 49.75C145.281 49.2109 145.801 48.8008 146.402 48.5195C147.012 48.2305 147.691 48.0859 148.441 48.0859C149.035 48.0859 149.578 48.1719 150.07 48.3438C150.562 48.5156 150.984 48.7891 151.336 49.1641C151.695 49.5391 151.969 50.0352 152.156 50.6523C152.352 51.2695 152.449 52.0234 152.449 52.9141V61H149.051V52.9023C149.051 52.3398 148.973 51.9023 148.816 51.5898C148.66 51.2773 148.43 51.0586 148.125 50.9336C147.828 50.8008 147.461 50.7344 147.023 50.7344C146.57 50.7344 146.176 50.8242 145.84 51.0039C145.512 51.1836 145.238 51.4336 145.02 51.7539C144.809 52.0664 144.648 52.4336 144.539 52.8555C144.43 53.2773 144.375 53.7305 144.375 54.2148ZM164.109 56.5352C164.109 56.2305 164.062 55.957 163.969 55.7148C163.883 55.4648 163.719 55.2383 163.477 55.0352C163.234 54.8242 162.895 54.6172 162.457 54.4141C162.02 54.2109 161.453 54 160.758 53.7812C159.984 53.5312 159.25 53.25 158.555 52.9375C157.867 52.625 157.258 52.2617 156.727 51.8477C156.203 51.4258 155.789 50.9375 155.484 50.3828C155.188 49.8281 155.039 49.1836 155.039 48.4492C155.039 47.7383 155.195 47.0938 155.508 46.5156C155.82 45.9297 156.258 45.4297 156.82 45.0156C157.383 44.5938 158.047 44.2695 158.812 44.043C159.586 43.8164 160.434 43.7031 161.355 43.7031C162.613 43.7031 163.711 43.9297 164.648 44.3828C165.586 44.8359 166.312 45.457 166.828 46.2461C167.352 47.0352 167.613 47.9375 167.613 48.9531H164.121C164.121 48.4531 164.016 48.0156 163.805 47.6406C163.602 47.2578 163.289 46.957 162.867 46.7383C162.453 46.5195 161.93 46.4102 161.297 46.4102C160.688 46.4102 160.18 46.5039 159.773 46.6914C159.367 46.8711 159.062 47.1172 158.859 47.4297C158.656 47.7344 158.555 48.0781 158.555 48.4609C158.555 48.75 158.625 49.0117 158.766 49.2461C158.914 49.4805 159.133 49.6992 159.422 49.9023C159.711 50.1055 160.066 50.2969 160.488 50.4766C160.91 50.6562 161.398 50.832 161.953 51.0039C162.883 51.2852 163.699 51.6016 164.402 51.9531C165.113 52.3047 165.707 52.6992 166.184 53.1367C166.66 53.5742 167.02 54.0703 167.262 54.625C167.504 55.1797 167.625 55.8086 167.625 56.5117C167.625 57.2539 167.48 57.918 167.191 58.5039C166.902 59.0898 166.484 59.5859 165.938 59.9922C165.391 60.3984 164.738 60.707 163.98 60.918C163.223 61.1289 162.375 61.2344 161.438 61.2344C160.594 61.2344 159.762 61.125 158.941 60.9062C158.121 60.6797 157.375 60.3398 156.703 59.8867C156.039 59.4336 155.508 58.8555 155.109 58.1523C154.711 57.4492 154.512 56.6172 154.512 55.6562H158.039C158.039 56.1875 158.121 56.6367 158.285 57.0039C158.449 57.3711 158.68 57.668 158.977 57.8945C159.281 58.1211 159.641 58.2852 160.055 58.3867C160.477 58.4883 160.938 58.5391 161.438 58.5391C162.047 58.5391 162.547 58.4531 162.938 58.2812C163.336 58.1094 163.629 57.8711 163.816 57.5664C164.012 57.2617 164.109 56.918 164.109 56.5352ZM173.18 50.7578V65.875H169.805V48.3203H172.934L173.18 50.7578ZM181.207 54.5195V54.7656C181.207 55.6875 181.098 56.543 180.879 57.332C180.668 58.1211 180.355 58.8086 179.941 59.3945C179.527 59.9727 179.012 60.4258 178.395 60.7539C177.785 61.0742 177.082 61.2344 176.285 61.2344C175.512 61.2344 174.84 61.0781 174.27 60.7656C173.699 60.4531 173.219 60.0156 172.828 59.4531C172.445 58.8828 172.137 58.2227 171.902 57.4727C171.668 56.7227 171.488 55.918 171.363 55.0586V54.4141C171.488 53.4922 171.668 52.6484 171.902 51.8828C172.137 51.1094 172.445 50.4414 172.828 49.8789C173.219 49.3086 173.695 48.8672 174.258 48.5547C174.828 48.2422 175.496 48.0859 176.262 48.0859C177.066 48.0859 177.773 48.2383 178.383 48.543C179 48.8477 179.516 49.2852 179.93 49.8555C180.352 50.4258 180.668 51.1055 180.879 51.8945C181.098 52.6836 181.207 53.5586 181.207 54.5195ZM177.82 54.7656V54.5195C177.82 53.9805 177.773 53.4844 177.68 53.0312C177.594 52.5703 177.453 52.168 177.258 51.8242C177.07 51.4805 176.82 51.2148 176.508 51.0273C176.203 50.832 175.832 50.7344 175.395 50.7344C174.934 50.7344 174.539 50.8086 174.211 50.957C173.891 51.1055 173.629 51.3203 173.426 51.6016C173.223 51.8828 173.07 52.2188 172.969 52.6094C172.867 53 172.805 53.4414 172.781 53.9336V55.5625C172.82 56.1406 172.93 56.6602 173.109 57.1211C173.289 57.5742 173.566 57.9336 173.941 58.1992C174.316 58.4648 174.809 58.5977 175.418 58.5977C175.863 58.5977 176.238 58.5 176.543 58.3047C176.848 58.1016 177.094 57.8242 177.281 57.4727C177.477 57.1211 177.613 56.7148 177.691 56.2539C177.777 55.793 177.82 55.2969 177.82 54.7656ZM189.141 61.2344C188.156 61.2344 187.273 61.0781 186.492 60.7656C185.711 60.4453 185.047 60.0039 184.5 59.4414C183.961 58.8789 183.547 58.2266 183.258 57.4844C182.969 56.7344 182.824 55.9375 182.824 55.0938V54.625C182.824 53.6641 182.961 52.7852 183.234 51.9883C183.508 51.1914 183.898 50.5 184.406 49.9141C184.922 49.3281 185.547 48.8789 186.281 48.5664C187.016 48.2461 187.844 48.0859 188.766 48.0859C189.664 48.0859 190.461 48.2344 191.156 48.5312C191.852 48.8281 192.434 49.25 192.902 49.7969C193.379 50.3438 193.738 51 193.98 51.7656C194.223 52.5234 194.344 53.3672 194.344 54.2969V55.7031H184.266V53.4531H191.027V53.1953C191.027 52.7266 190.941 52.3086 190.77 51.9414C190.605 51.5664 190.355 51.2695 190.02 51.0508C189.684 50.832 189.254 50.7227 188.73 50.7227C188.285 50.7227 187.902 50.8203 187.582 51.0156C187.262 51.2109 187 51.4844 186.797 51.8359C186.602 52.1875 186.453 52.6016 186.352 53.0781C186.258 53.5469 186.211 54.0625 186.211 54.625V55.0938C186.211 55.6016 186.281 56.0703 186.422 56.5C186.57 56.9297 186.777 57.3008 187.043 57.6133C187.316 57.9258 187.645 58.168 188.027 58.3398C188.418 58.5117 188.859 58.5977 189.352 58.5977C189.961 58.5977 190.527 58.4805 191.051 58.2461C191.582 58.0039 192.039 57.6406 192.422 57.1562L194.062 58.9375C193.797 59.3203 193.434 59.6875 192.973 60.0391C192.52 60.3906 191.973 60.6797 191.332 60.9062C190.691 61.125 189.961 61.2344 189.141 61.2344ZM203.109 58.1406V52.4922C203.109 52.0859 203.043 51.7383 202.91 51.4492C202.777 51.1523 202.57 50.9219 202.289 50.7578C202.016 50.5938 201.66 50.5117 201.223 50.5117C200.848 50.5117 200.523 50.5781 200.25 50.7109C199.977 50.8359 199.766 51.0195 199.617 51.2617C199.469 51.4961 199.395 51.7734 199.395 52.0938H196.02C196.02 51.5547 196.145 51.043 196.395 50.5586C196.645 50.0742 197.008 49.6484 197.484 49.2812C197.961 48.9062 198.527 48.6133 199.184 48.4023C199.848 48.1914 200.59 48.0859 201.41 48.0859C202.395 48.0859 203.27 48.25 204.035 48.5781C204.801 48.9062 205.402 49.3984 205.84 50.0547C206.285 50.7109 206.508 51.5312 206.508 52.5156V57.9414C206.508 58.6367 206.551 59.207 206.637 59.6523C206.723 60.0898 206.848 60.4727 207.012 60.8008V61H203.602C203.438 60.6562 203.312 60.2266 203.227 59.7109C203.148 59.1875 203.109 58.6641 203.109 58.1406ZM203.555 53.2773L203.578 55.1875H201.691C201.246 55.1875 200.859 55.2383 200.531 55.3398C200.203 55.4414 199.934 55.5859 199.723 55.7734C199.512 55.9531 199.355 56.1641 199.254 56.4062C199.16 56.6484 199.113 56.9141 199.113 57.2031C199.113 57.4922 199.18 57.7539 199.312 57.9883C199.445 58.2148 199.637 58.3945 199.887 58.5273C200.137 58.6523 200.43 58.7148 200.766 58.7148C201.273 58.7148 201.715 58.6133 202.09 58.4102C202.465 58.207 202.754 57.957 202.957 57.6602C203.168 57.3633 203.277 57.082 203.285 56.8164L204.176 58.2461C204.051 58.5664 203.879 58.8984 203.66 59.2422C203.449 59.5859 203.18 59.9102 202.852 60.2148C202.523 60.5117 202.129 60.7578 201.668 60.9531C201.207 61.1406 200.66 61.2344 200.027 61.2344C199.223 61.2344 198.492 61.0742 197.836 60.7539C197.188 60.4258 196.672 59.9766 196.289 59.4062C195.914 58.8281 195.727 58.1719 195.727 57.4375C195.727 56.7734 195.852 56.1836 196.102 55.668C196.352 55.1523 196.719 54.7188 197.203 54.3672C197.695 54.0078 198.309 53.7383 199.043 53.5586C199.777 53.3711 200.629 53.2773 201.598 53.2773H203.555ZM212.484 42.9883V61H209.109V42.9883H212.484ZM220.477 48.3203L214.969 54.6016L212.016 57.5898L210.785 55.1523L213.129 52.1758L216.422 48.3203H220.477ZM216.973 61L213.223 55.1406L215.555 53.1016L220.863 61H216.973Z" fill="#888888"/>
<path d="M114.117 84.875H122.344V107.164C122.344 109.82 121.789 112.07 120.68 113.914C119.57 115.742 118.016 117.125 116.016 118.062C114.016 119 111.664 119.469 108.961 119.469C106.289 119.469 103.938 119 101.906 118.062C99.8906 117.125 98.3125 115.742 97.1719 113.914C96.0469 112.07 95.4844 109.82 95.4844 107.164V84.875H103.734V107.164C103.734 108.57 103.938 109.719 104.344 110.609C104.75 111.484 105.344 112.125 106.125 112.531C106.906 112.938 107.852 113.141 108.961 113.141C110.086 113.141 111.031 112.938 111.797 112.531C112.562 112.125 113.141 111.484 113.531 110.609C113.922 109.719 114.117 108.57 114.117 107.164V84.875ZM136.266 84.875V119H128.062V84.875H136.266ZM172.523 84.875H180.75V107.164C180.75 109.82 180.195 112.07 179.086 113.914C177.977 115.742 176.422 117.125 174.422 118.062C172.422 119 170.07 119.469 167.367 119.469C164.695 119.469 162.344 119 160.312 118.062C158.297 117.125 156.719 115.742 155.578 113.914C154.453 112.07 153.891 109.82 153.891 107.164V84.875H162.141V107.164C162.141 108.57 162.344 109.719 162.75 110.609C163.156 111.484 163.75 112.125 164.531 112.531C165.312 112.938 166.258 113.141 167.367 113.141C168.492 113.141 169.438 112.938 170.203 112.531C170.969 112.125 171.547 111.484 171.938 110.609C172.328 109.719 172.523 108.57 172.523 107.164V84.875ZM193.078 84.875L198.656 96.2188L204.234 84.875H213.609L204.094 101.797L213.867 119H204.398L198.656 107.445L192.914 119H183.422L193.219 101.797L183.68 84.875H193.078Z" fill="black"/>
<path d="M1134 0H1348C1356.28 0 1363 6.71573 1363 15V148C1363 156.284 1356.28 163 1348 163H1134V0Z" fill="#5271FF"/>
<path d="M1248.5 111.917C1244.51 111.917 1240.55 111.13 1236.86 109.601C1233.17 108.073 1229.82 105.832 1226.99 103.008C1221.29 97.3036 1218.08 89.567 1218.08 81.5C1218.08 73.433 1221.29 65.6964 1226.99 59.9922C1232.7 54.2879 1240.43 51.0833 1248.5 51.0833C1265.23 51.0833 1278.92 63.25 1278.92 78.4583C1278.92 83.2985 1276.99 87.9405 1273.57 91.363C1270.15 94.7856 1265.51 96.7083 1260.67 96.7083H1255.19C1254.28 96.7083 1253.67 97.3167 1253.67 98.2292C1253.67 98.5333 1253.97 98.8375 1253.97 99.1417C1255.19 100.662 1255.8 102.487 1255.8 104.312C1256.1 108.571 1252.76 111.917 1248.5 111.917ZM1248.5 57.1667C1242.05 57.1667 1235.86 59.7303 1231.29 64.2937C1226.73 68.8571 1224.17 75.0464 1224.17 81.5C1224.17 87.9536 1226.73 94.1429 1231.29 98.7063C1235.86 103.27 1242.05 105.833 1248.5 105.833C1249.41 105.833 1250.02 105.225 1250.02 104.312C1250.02 103.704 1249.72 103.4 1249.72 103.096C1248.5 101.575 1247.89 100.054 1247.89 98.2292C1247.89 93.9708 1251.24 90.625 1255.5 90.625H1260.67C1263.89 90.625 1266.99 89.3432 1269.27 87.0615C1271.55 84.7798 1272.83 81.6851 1272.83 78.4583C1272.83 66.5958 1261.88 57.1667 1248.5 57.1667ZM1231.77 75.4167C1234.2 75.4167 1236.33 77.5458 1236.33 79.9792C1236.33 82.4125 1234.2 84.5417 1231.77 84.5417C1229.34 84.5417 1227.21 82.4125 1227.21 79.9792C1227.21 77.5458 1229.34 75.4167 1231.77 75.4167ZM1240.9 63.25C1243.33 63.25 1245.46 65.3792 1245.46 67.8125C1245.46 70.2458 1243.33 72.375 1240.9 72.375C1238.46 72.375 1236.33 70.2458 1236.33 67.8125C1236.33 65.3792 1238.46 63.25 1240.9 63.25ZM1256.1 63.25C1258.54 63.25 1260.67 65.3792 1260.67 67.8125C1260.67 70.2458 1258.54 72.375 1256.1 72.375C1253.67 72.375 1251.54 70.2458 1251.54 67.8125C1251.54 65.3792 1253.67 63.25 1256.1 63.25ZM1265.23 75.4167C1267.66 75.4167 1269.79 77.5458 1269.79 79.9792C1269.79 82.4125 1267.66 84.5417 1265.23 84.5417C1262.8 84.5417 1260.67 82.4125 1260.67 79.9792C1260.67 77.5458 1262.8 75.4167 1265.23 75.4167Z" fill="white"/>
</svg>
