<svg width="1363" height="163" viewBox="0 0 1363 163" fill="none" xmlns="http://www.w3.org/2000/svg">
<path d="M0 15C0 6.71573 6.71573 0 15 0H37V163H15C6.71573 163 0 156.284 0 148V15Z" fill="#424242"/>
<rect width="1097" height="163" transform="translate(37)" fill="#F0F0F0"/>
<path d="M101.906 53.9219L94.3945 51.2383V48.0859L104.602 52.375V54.6367L101.906 53.9219ZM94.3945 56.1719L101.918 53.4297L104.602 52.7852V55.0352L94.3945 59.3242V56.1719ZM115.805 56.5352C115.805 56.2305 115.758 55.957 115.664 55.7148C115.578 55.4648 115.414 55.2383 115.172 55.0352C114.93 54.8242 114.59 54.6172 114.152 54.4141C113.715 54.2109 113.148 54 112.453 53.7812C111.68 53.5312 110.945 53.25 110.25 52.9375C109.562 52.625 108.953 52.2617 108.422 51.8477C107.898 51.4258 107.484 50.9375 107.18 50.3828C106.883 49.8281 106.734 49.1836 106.734 48.4492C106.734 47.7383 106.891 47.0938 107.203 46.5156C107.516 45.9297 107.953 45.4297 108.516 45.0156C109.078 44.5938 109.742 44.2695 110.508 44.043C111.281 43.8164 112.129 43.7031 113.051 43.7031C114.309 43.7031 115.406 43.9297 116.344 44.3828C117.281 44.8359 118.008 45.457 118.523 46.2461C119.047 47.0352 119.309 47.9375 119.309 48.9531H115.816C115.816 48.4531 115.711 48.0156 115.5 47.6406C115.297 47.2578 114.984 46.957 114.562 46.7383C114.148 46.5195 113.625 46.4102 112.992 46.4102C112.383 46.4102 111.875 46.5039 111.469 46.6914C111.062 46.8711 110.758 47.1172 110.555 47.4297C110.352 47.7344 110.25 48.0781 110.25 48.4609C110.25 48.75 110.32 49.0117 110.461 49.2461C110.609 49.4805 110.828 49.6992 111.117 49.9023C111.406 50.1055 111.762 50.2969 112.184 50.4766C112.605 50.6562 113.094 50.832 113.648 51.0039C114.578 51.2852 115.395 51.6016 116.098 51.9531C116.809 52.3047 117.402 52.6992 117.879 53.1367C118.355 53.5742 118.715 54.0703 118.957 54.625C119.199 55.1797 119.32 55.8086 119.32 56.5117C119.32 57.2539 119.176 57.918 118.887 58.5039C118.598 59.0898 118.18 59.5859 117.633 59.9922C117.086 60.3984 116.434 60.707 115.676 60.918C114.918 61.1289 114.07 61.2344 113.133 61.2344C112.289 61.2344 111.457 61.125 110.637 60.9062C109.816 60.6797 109.07 60.3398 108.398 59.8867C107.734 59.4336 107.203 58.8555 106.805 58.1523C106.406 57.4492 106.207 56.6172 106.207 55.6562H109.734C109.734 56.1875 109.816 56.6367 109.98 57.0039C110.145 57.3711 110.375 57.668 110.672 57.8945C110.977 58.1211 111.336 58.2852 111.75 58.3867C112.172 58.4883 112.633 58.5391 113.133 58.5391C113.742 58.5391 114.242 58.4531 114.633 58.2812C115.031 58.1094 115.324 57.8711 115.512 57.5664C115.707 57.2617 115.805 56.918 115.805 56.5352ZM125.062 48.3203V61H121.676V48.3203H125.062ZM121.465 45.0156C121.465 44.5234 121.637 44.1172 121.98 43.7969C122.324 43.4766 122.785 43.3164 123.363 43.3164C123.934 43.3164 124.391 43.4766 124.734 43.7969C125.086 44.1172 125.262 44.5234 125.262 45.0156C125.262 45.5078 125.086 45.9141 124.734 46.2344C124.391 46.5547 123.934 46.7148 123.363 46.7148C122.785 46.7148 122.324 46.5547 121.98 46.2344C121.637 45.9141 121.465 45.5078 121.465 45.0156ZM135.879 48.3203H138.938V60.5781C138.938 61.7344 138.68 62.7148 138.164 63.5195C137.656 64.332 136.945 64.9453 136.031 65.3594C135.117 65.7812 134.055 65.9922 132.844 65.9922C132.312 65.9922 131.75 65.9219 131.156 65.7812C130.57 65.6406 130.008 65.4219 129.469 65.125C128.938 64.8281 128.492 64.4531 128.133 64L129.621 62.0078C130.012 62.4609 130.465 62.8125 130.98 63.0625C131.496 63.3203 132.066 63.4492 132.691 63.4492C133.301 63.4492 133.816 63.3359 134.238 63.1094C134.66 62.8906 134.984 62.5664 135.211 62.1367C135.438 61.7148 135.551 61.2031 135.551 60.6016V51.25L135.879 48.3203ZM127.348 54.8125V54.5664C127.348 53.5977 127.465 52.7188 127.699 51.9297C127.941 51.1328 128.281 50.4492 128.719 49.8789C129.164 49.3086 129.703 48.8672 130.336 48.5547C130.969 48.2422 131.684 48.0859 132.48 48.0859C133.324 48.0859 134.031 48.2422 134.602 48.5547C135.172 48.8672 135.641 49.3125 136.008 49.8906C136.375 50.4609 136.66 51.1367 136.863 51.918C137.074 52.6914 137.238 53.5391 137.355 54.4609V55C137.238 55.8828 137.062 56.7031 136.828 57.4609C136.594 58.2188 136.285 58.8828 135.902 59.4531C135.52 60.0156 135.043 60.4531 134.473 60.7656C133.91 61.0781 133.238 61.2344 132.457 61.2344C131.676 61.2344 130.969 61.0742 130.336 60.7539C129.711 60.4336 129.176 59.9844 128.73 59.4062C128.285 58.8281 127.941 58.1484 127.699 57.3672C127.465 56.5859 127.348 55.7344 127.348 54.8125ZM130.723 54.5664V54.8125C130.723 55.3359 130.773 55.8242 130.875 56.2773C130.977 56.7305 131.133 57.1328 131.344 57.4844C131.562 57.8281 131.832 58.0977 132.152 58.293C132.48 58.4805 132.867 58.5742 133.312 58.5742C133.93 58.5742 134.434 58.4453 134.824 58.1875C135.215 57.9219 135.508 57.5586 135.703 57.0977C135.898 56.6367 136.012 56.1055 136.043 55.5039V53.9688C136.027 53.4766 135.961 53.0352 135.844 52.6445C135.727 52.2461 135.562 51.9062 135.352 51.625C135.141 51.3438 134.867 51.125 134.531 50.9688C134.195 50.8125 133.797 50.7344 133.336 50.7344C132.891 50.7344 132.504 50.8359 132.176 51.0391C131.855 51.2344 131.586 51.5039 131.367 51.8477C131.156 52.1914 130.996 52.5977 130.887 53.0664C130.777 53.5273 130.723 54.0273 130.723 54.5664ZM144.867 51.0273V61H141.492V48.3203H144.656L144.867 51.0273ZM144.375 54.2148H143.461C143.461 53.2773 143.582 52.4336 143.824 51.6836C144.066 50.9258 144.406 50.2812 144.844 49.75C145.281 49.2109 145.801 48.8008 146.402 48.5195C147.012 48.2305 147.691 48.0859 148.441 48.0859C149.035 48.0859 149.578 48.1719 150.07 48.3438C150.562 48.5156 150.984 48.7891 151.336 49.1641C151.695 49.5391 151.969 50.0352 152.156 50.6523C152.352 51.2695 152.449 52.0234 152.449 52.9141V61H149.051V52.9023C149.051 52.3398 148.973 51.9023 148.816 51.5898C148.66 51.2773 148.43 51.0586 148.125 50.9336C147.828 50.8008 147.461 50.7344 147.023 50.7344C146.57 50.7344 146.176 50.8242 145.84 51.0039C145.512 51.1836 145.238 51.4336 145.02 51.7539C144.809 52.0664 144.648 52.4336 144.539 52.8555C144.43 53.2773 144.375 53.7305 144.375 54.2148ZM164.109 56.5352C164.109 56.2305 164.062 55.957 163.969 55.7148C163.883 55.4648 163.719 55.2383 163.477 55.0352C163.234 54.8242 162.895 54.6172 162.457 54.4141C162.02 54.2109 161.453 54 160.758 53.7812C159.984 53.5312 159.25 53.25 158.555 52.9375C157.867 52.625 157.258 52.2617 156.727 51.8477C156.203 51.4258 155.789 50.9375 155.484 50.3828C155.188 49.8281 155.039 49.1836 155.039 48.4492C155.039 47.7383 155.195 47.0938 155.508 46.5156C155.82 45.9297 156.258 45.4297 156.82 45.0156C157.383 44.5938 158.047 44.2695 158.812 44.043C159.586 43.8164 160.434 43.7031 161.355 43.7031C162.613 43.7031 163.711 43.9297 164.648 44.3828C165.586 44.8359 166.312 45.457 166.828 46.2461C167.352 47.0352 167.613 47.9375 167.613 48.9531H164.121C164.121 48.4531 164.016 48.0156 163.805 47.6406C163.602 47.2578 163.289 46.957 162.867 46.7383C162.453 46.5195 161.93 46.4102 161.297 46.4102C160.688 46.4102 160.18 46.5039 159.773 46.6914C159.367 46.8711 159.062 47.1172 158.859 47.4297C158.656 47.7344 158.555 48.0781 158.555 48.4609C158.555 48.75 158.625 49.0117 158.766 49.2461C158.914 49.4805 159.133 49.6992 159.422 49.9023C159.711 50.1055 160.066 50.2969 160.488 50.4766C160.91 50.6562 161.398 50.832 161.953 51.0039C162.883 51.2852 163.699 51.6016 164.402 51.9531C165.113 52.3047 165.707 52.6992 166.184 53.1367C166.66 53.5742 167.02 54.0703 167.262 54.625C167.504 55.1797 167.625 55.8086 167.625 56.5117C167.625 57.2539 167.48 57.918 167.191 58.5039C166.902 59.0898 166.484 59.5859 165.938 59.9922C165.391 60.3984 164.738 60.707 163.98 60.918C163.223 61.1289 162.375 61.2344 161.438 61.2344C160.594 61.2344 159.762 61.125 158.941 60.9062C158.121 60.6797 157.375 60.3398 156.703 59.8867C156.039 59.4336 155.508 58.8555 155.109 58.1523C154.711 57.4492 154.512 56.6172 154.512 55.6562H158.039C158.039 56.1875 158.121 56.6367 158.285 57.0039C158.449 57.3711 158.68 57.668 158.977 57.8945C159.281 58.1211 159.641 58.2852 160.055 58.3867C160.477 58.4883 160.938 58.5391 161.438 58.5391C162.047 58.5391 162.547 58.4531 162.938 58.2812C163.336 58.1094 163.629 57.8711 163.816 57.5664C164.012 57.2617 164.109 56.918 164.109 56.5352ZM173.18 50.7578V65.875H169.805V48.3203H172.934L173.18 50.7578ZM181.207 54.5195V54.7656C181.207 55.6875 181.098 56.543 180.879 57.332C180.668 58.1211 180.355 58.8086 179.941 59.3945C179.527 59.9727 179.012 60.4258 178.395 60.7539C177.785 61.0742 177.082 61.2344 176.285 61.2344C175.512 61.2344 174.84 61.0781 174.27 60.7656C173.699 60.4531 173.219 60.0156 172.828 59.4531C172.445 58.8828 172.137 58.2227 171.902 57.4727C171.668 56.7227 171.488 55.918 171.363 55.0586V54.4141C171.488 53.4922 171.668 52.6484 171.902 51.8828C172.137 51.1094 172.445 50.4414 172.828 49.8789C173.219 49.3086 173.695 48.8672 174.258 48.5547C174.828 48.2422 175.496 48.0859 176.262 48.0859C177.066 48.0859 177.773 48.2383 178.383 48.543C179 48.8477 179.516 49.2852 179.93 49.8555C180.352 50.4258 180.668 51.1055 180.879 51.8945C181.098 52.6836 181.207 53.5586 181.207 54.5195ZM177.82 54.7656V54.5195C177.82 53.9805 177.773 53.4844 177.68 53.0312C177.594 52.5703 177.453 52.168 177.258 51.8242C177.07 51.4805 176.82 51.2148 176.508 51.0273C176.203 50.832 175.832 50.7344 175.395 50.7344C174.934 50.7344 174.539 50.8086 174.211 50.957C173.891 51.1055 173.629 51.3203 173.426 51.6016C173.223 51.8828 173.07 52.2188 172.969 52.6094C172.867 53 172.805 53.4414 172.781 53.9336V55.5625C172.82 56.1406 172.93 56.6602 173.109 57.1211C173.289 57.5742 173.566 57.9336 173.941 58.1992C174.316 58.4648 174.809 58.5977 175.418 58.5977C175.863 58.5977 176.238 58.5 176.543 58.3047C176.848 58.1016 177.094 57.8242 177.281 57.4727C177.477 57.1211 177.613 56.7148 177.691 56.2539C177.777 55.793 177.82 55.2969 177.82 54.7656ZM189.141 61.2344C188.156 61.2344 187.273 61.0781 186.492 60.7656C185.711 60.4453 185.047 60.0039 184.5 59.4414C183.961 58.8789 183.547 58.2266 183.258 57.4844C182.969 56.7344 182.824 55.9375 182.824 55.0938V54.625C182.824 53.6641 182.961 52.7852 183.234 51.9883C183.508 51.1914 183.898 50.5 184.406 49.9141C184.922 49.3281 185.547 48.8789 186.281 48.5664C187.016 48.2461 187.844 48.0859 188.766 48.0859C189.664 48.0859 190.461 48.2344 191.156 48.5312C191.852 48.8281 192.434 49.25 192.902 49.7969C193.379 50.3438 193.738 51 193.98 51.7656C194.223 52.5234 194.344 53.3672 194.344 54.2969V55.7031H184.266V53.4531H191.027V53.1953C191.027 52.7266 190.941 52.3086 190.77 51.9414C190.605 51.5664 190.355 51.2695 190.02 51.0508C189.684 50.832 189.254 50.7227 188.73 50.7227C188.285 50.7227 187.902 50.8203 187.582 51.0156C187.262 51.2109 187 51.4844 186.797 51.8359C186.602 52.1875 186.453 52.6016 186.352 53.0781C186.258 53.5469 186.211 54.0625 186.211 54.625V55.0938C186.211 55.6016 186.281 56.0703 186.422 56.5C186.57 56.9297 186.777 57.3008 187.043 57.6133C187.316 57.9258 187.645 58.168 188.027 58.3398C188.418 58.5117 188.859 58.5977 189.352 58.5977C189.961 58.5977 190.527 58.4805 191.051 58.2461C191.582 58.0039 192.039 57.6406 192.422 57.1562L194.062 58.9375C193.797 59.3203 193.434 59.6875 192.973 60.0391C192.52 60.3906 191.973 60.6797 191.332 60.9062C190.691 61.125 189.961 61.2344 189.141 61.2344ZM203.109 58.1406V52.4922C203.109 52.0859 203.043 51.7383 202.91 51.4492C202.777 51.1523 202.57 50.9219 202.289 50.7578C202.016 50.5938 201.66 50.5117 201.223 50.5117C200.848 50.5117 200.523 50.5781 200.25 50.7109C199.977 50.8359 199.766 51.0195 199.617 51.2617C199.469 51.4961 199.395 51.7734 199.395 52.0938H196.02C196.02 51.5547 196.145 51.043 196.395 50.5586C196.645 50.0742 197.008 49.6484 197.484 49.2812C197.961 48.9062 198.527 48.6133 199.184 48.4023C199.848 48.1914 200.59 48.0859 201.41 48.0859C202.395 48.0859 203.27 48.25 204.035 48.5781C204.801 48.9062 205.402 49.3984 205.84 50.0547C206.285 50.7109 206.508 51.5312 206.508 52.5156V57.9414C206.508 58.6367 206.551 59.207 206.637 59.6523C206.723 60.0898 206.848 60.4727 207.012 60.8008V61H203.602C203.438 60.6562 203.312 60.2266 203.227 59.7109C203.148 59.1875 203.109 58.6641 203.109 58.1406ZM203.555 53.2773L203.578 55.1875H201.691C201.246 55.1875 200.859 55.2383 200.531 55.3398C200.203 55.4414 199.934 55.5859 199.723 55.7734C199.512 55.9531 199.355 56.1641 199.254 56.4062C199.16 56.6484 199.113 56.9141 199.113 57.2031C199.113 57.4922 199.18 57.7539 199.312 57.9883C199.445 58.2148 199.637 58.3945 199.887 58.5273C200.137 58.6523 200.43 58.7148 200.766 58.7148C201.273 58.7148 201.715 58.6133 202.09 58.4102C202.465 58.207 202.754 57.957 202.957 57.6602C203.168 57.3633 203.277 57.082 203.285 56.8164L204.176 58.2461C204.051 58.5664 203.879 58.8984 203.66 59.2422C203.449 59.5859 203.18 59.9102 202.852 60.2148C202.523 60.5117 202.129 60.7578 201.668 60.9531C201.207 61.1406 200.66 61.2344 200.027 61.2344C199.223 61.2344 198.492 61.0742 197.836 60.7539C197.188 60.4258 196.672 59.9766 196.289 59.4062C195.914 58.8281 195.727 58.1719 195.727 57.4375C195.727 56.7734 195.852 56.1836 196.102 55.668C196.352 55.1523 196.719 54.7188 197.203 54.3672C197.695 54.0078 198.309 53.7383 199.043 53.5586C199.777 53.3711 200.629 53.2773 201.598 53.2773H203.555ZM212.484 42.9883V61H209.109V42.9883H212.484ZM220.477 48.3203L214.969 54.6016L212.016 57.5898L210.785 55.1523L213.129 52.1758L216.422 48.3203H220.477ZM216.973 61L213.223 55.1406L215.555 53.1016L220.863 61H216.973Z" fill="#888888"/>
<path d="M110.062 92.0469L101.742 119H92.9062L105.445 84.875H111.047L110.062 92.0469ZM116.953 119L108.609 92.0469L107.531 84.875H113.203L125.812 119H116.953ZM116.625 106.273V112.625H99.1172V106.273H116.625ZM135.258 115.906L142.055 84.875H146.109L148.312 87.5234L141.07 119H136.594L135.258 115.906ZM133.453 84.875L139.195 116.141L137.719 119H132.539L125.297 84.875H133.453ZM152.039 115.977L157.734 84.875H165.867L158.625 119H153.469L152.039 115.977ZM149.039 84.875L156 116.094L154.594 119H150.117L142.711 87.4766L145.008 84.875H149.039ZM186.68 109.93C186.68 109.398 186.602 108.922 186.445 108.5C186.289 108.062 186 107.656 185.578 107.281C185.156 106.906 184.547 106.531 183.75 106.156C182.969 105.766 181.938 105.359 180.656 104.938C179.156 104.438 177.711 103.875 176.32 103.25C174.93 102.609 173.688 101.867 172.594 101.023C171.5 100.164 170.633 99.1641 169.992 98.0234C169.352 96.8672 169.031 95.5234 169.031 93.9922C169.031 92.5234 169.359 91.2031 170.016 90.0312C170.672 88.8438 171.586 87.8359 172.758 87.0078C173.945 86.1641 175.336 85.5234 176.93 85.0859C178.523 84.6328 180.266 84.4062 182.156 84.4062C184.656 84.4062 186.859 84.8438 188.766 85.7188C190.688 86.5781 192.188 87.8047 193.266 89.3984C194.359 90.9766 194.906 92.8438 194.906 95H186.727C186.727 94.1406 186.547 93.3828 186.188 92.7266C185.844 92.0703 185.32 91.5547 184.617 91.1797C183.914 90.8047 183.031 90.6172 181.969 90.6172C180.938 90.6172 180.07 90.7734 179.367 91.0859C178.664 91.3984 178.133 91.8203 177.773 92.3516C177.414 92.8672 177.234 93.4375 177.234 94.0625C177.234 94.5781 177.375 95.0469 177.656 95.4688C177.953 95.875 178.367 96.2578 178.898 96.6172C179.445 96.9766 180.102 97.3203 180.867 97.6484C181.648 97.9766 182.523 98.2969 183.492 98.6094C185.305 99.1875 186.914 99.8359 188.32 100.555C189.742 101.258 190.938 102.062 191.906 102.969C192.891 103.859 193.633 104.875 194.133 106.016C194.648 107.156 194.906 108.445 194.906 109.883C194.906 111.414 194.609 112.773 194.016 113.961C193.422 115.148 192.57 116.156 191.461 116.984C190.352 117.797 189.023 118.414 187.477 118.836C185.93 119.258 184.203 119.469 182.297 119.469C180.547 119.469 178.82 119.25 177.117 118.812C175.43 118.359 173.898 117.672 172.523 116.75C171.148 115.812 170.047 114.617 169.219 113.164C168.406 111.695 168 109.953 168 107.938H176.25C176.25 108.938 176.383 109.781 176.648 110.469C176.914 111.156 177.305 111.711 177.82 112.133C178.336 112.539 178.969 112.836 179.719 113.023C180.469 113.195 181.328 113.281 182.297 113.281C183.344 113.281 184.188 113.133 184.828 112.836C185.469 112.523 185.938 112.117 186.234 111.617C186.531 111.102 186.68 110.539 186.68 109.93ZM222.188 119H214.617L214.664 112.672H222.188C223.75 112.672 225.07 112.297 226.148 111.547C227.242 110.797 228.07 109.68 228.633 108.195C229.211 106.695 229.5 104.852 229.5 102.664V101.188C229.5 99.5469 229.336 98.1094 229.008 96.875C228.695 95.625 228.227 94.5859 227.602 93.7578C226.977 92.9141 226.195 92.2812 225.258 91.8594C224.336 91.4375 223.273 91.2266 222.07 91.2266H214.477V84.875H222.07C224.383 84.875 226.5 85.2734 228.422 86.0703C230.359 86.8516 232.031 87.9766 233.438 89.4453C234.859 90.8984 235.953 92.625 236.719 94.625C237.5 96.6094 237.891 98.8125 237.891 101.234V102.664C237.891 105.07 237.5 107.273 236.719 109.273C235.953 111.273 234.867 113 233.461 114.453C232.055 115.906 230.391 117.031 228.469 117.828C226.562 118.609 224.469 119 222.188 119ZM219.328 84.875V119H211.102V84.875H219.328ZM254.086 119.469C252.023 119.469 250.18 119.148 248.555 118.508C246.93 117.852 245.555 116.953 244.43 115.812C243.32 114.672 242.469 113.359 241.875 111.875C241.297 110.391 241.008 108.82 241.008 107.164V106.273C241.008 104.414 241.266 102.695 241.781 101.117C242.297 99.5234 243.062 98.1328 244.078 96.9453C245.094 95.7578 246.367 94.8359 247.898 94.1797C249.43 93.5078 251.211 93.1719 253.242 93.1719C255.039 93.1719 256.648 93.4609 258.07 94.0391C259.492 94.6172 260.695 95.4453 261.68 96.5234C262.68 97.6016 263.438 98.9062 263.953 100.438C264.484 101.969 264.75 103.688 264.75 105.594V108.805H244.031V103.859H257.039V103.25C257.055 102.406 256.906 101.688 256.594 101.094C256.297 100.5 255.859 100.047 255.281 99.7344C254.703 99.4219 254 99.2656 253.172 99.2656C252.312 99.2656 251.602 99.4531 251.039 99.8281C250.492 100.203 250.062 100.719 249.75 101.375C249.453 102.016 249.242 102.758 249.117 103.602C248.992 104.445 248.93 105.336 248.93 106.273V107.164C248.93 108.102 249.055 108.953 249.305 109.719C249.57 110.484 249.945 111.141 250.43 111.688C250.93 112.219 251.523 112.633 252.211 112.93C252.914 113.227 253.711 113.375 254.602 113.375C255.68 113.375 256.742 113.172 257.789 112.766C258.836 112.359 259.734 111.688 260.484 110.75L264.07 115.016C263.555 115.75 262.82 116.461 261.867 117.148C260.93 117.836 259.805 118.398 258.492 118.836C257.18 119.258 255.711 119.469 254.086 119.469ZM275.93 98.5156V128.75H268.031V93.6406H275.391L275.93 98.5156ZM291.492 106.016V106.508C291.492 108.352 291.281 110.062 290.859 111.641C290.438 113.219 289.812 114.594 288.984 115.766C288.156 116.938 287.125 117.852 285.891 118.508C284.672 119.148 283.258 119.469 281.648 119.469C280.133 119.469 278.828 119.133 277.734 118.461C276.641 117.789 275.727 116.859 274.992 115.672C274.258 114.484 273.664 113.125 273.211 111.594C272.758 110.062 272.398 108.445 272.133 106.742V106.109C272.398 104.281 272.758 102.586 273.211 101.023C273.664 99.4453 274.258 98.0703 274.992 96.8984C275.727 95.7266 276.633 94.8125 277.711 94.1562C278.805 93.5 280.109 93.1719 281.625 93.1719C283.234 93.1719 284.648 93.4766 285.867 94.0859C287.102 94.6953 288.133 95.5703 288.961 96.7109C289.805 97.8359 290.438 99.1875 290.859 100.766C291.281 102.344 291.492 104.094 291.492 106.016ZM283.594 106.508V106.016C283.594 105.031 283.523 104.133 283.383 103.32C283.242 102.492 283.016 101.773 282.703 101.164C282.406 100.555 282.008 100.086 281.508 99.7578C281.008 99.4297 280.391 99.2656 279.656 99.2656C278.812 99.2656 278.102 99.3984 277.523 99.6641C276.961 99.9141 276.508 100.305 276.164 100.836C275.836 101.352 275.602 102 275.461 102.781C275.336 103.547 275.281 104.445 275.297 105.477V107.398C275.266 108.586 275.383 109.633 275.648 110.539C275.914 111.43 276.375 112.125 277.031 112.625C277.688 113.125 278.578 113.375 279.703 113.375C280.453 113.375 281.078 113.203 281.578 112.859C282.078 112.5 282.477 112.008 282.773 111.383C283.07 110.742 283.281 110.008 283.406 109.18C283.531 108.352 283.594 107.461 283.594 106.508ZM303.352 83V119H295.43V83H303.352ZM307.242 106.578V106.086C307.242 104.227 307.508 102.516 308.039 100.953C308.57 99.375 309.352 98.0078 310.383 96.8516C311.414 95.6953 312.688 94.7969 314.203 94.1562C315.719 93.5 317.469 93.1719 319.453 93.1719C321.453 93.1719 323.211 93.5 324.727 94.1562C326.258 94.7969 327.539 95.6953 328.57 96.8516C329.602 98.0078 330.383 99.375 330.914 100.953C331.445 102.516 331.711 104.227 331.711 106.086V106.578C331.711 108.422 331.445 110.133 330.914 111.711C330.383 113.273 329.602 114.641 328.57 115.812C327.539 116.969 326.266 117.867 324.75 118.508C323.234 119.148 321.484 119.469 319.5 119.469C317.516 119.469 315.758 119.148 314.227 118.508C312.695 117.867 311.414 116.969 310.383 115.812C309.352 114.641 308.57 113.273 308.039 111.711C307.508 110.133 307.242 108.422 307.242 106.578ZM315.141 106.086V106.578C315.141 107.531 315.211 108.422 315.352 109.25C315.492 110.078 315.727 110.805 316.055 111.43C316.383 112.039 316.828 112.516 317.391 112.859C317.953 113.203 318.656 113.375 319.5 113.375C320.328 113.375 321.016 113.203 321.562 112.859C322.125 112.516 322.57 112.039 322.898 111.43C323.227 110.805 323.461 110.078 323.602 109.25C323.742 108.422 323.812 107.531 323.812 106.578V106.086C323.812 105.164 323.742 104.297 323.602 103.484C323.461 102.656 323.227 101.93 322.898 101.305C322.57 100.664 322.125 100.164 321.562 99.8047C321 99.4453 320.297 99.2656 319.453 99.2656C318.625 99.2656 317.93 99.4453 317.367 99.8047C316.82 100.164 316.383 100.664 316.055 101.305C315.727 101.93 315.492 102.656 315.352 103.484C315.211 104.297 315.141 105.164 315.141 106.086ZM342.633 116.023L349.195 93.6406H357.68L347.484 122.773C347.266 123.414 346.977 124.102 346.617 124.836C346.258 125.586 345.766 126.297 345.141 126.969C344.516 127.641 343.711 128.188 342.727 128.609C341.758 129.031 340.555 129.242 339.117 129.242C338.352 129.242 337.789 129.203 337.43 129.125C337.086 129.062 336.555 128.945 335.836 128.773V123.125C336.039 123.125 336.211 123.125 336.352 123.125C336.508 123.125 336.68 123.125 336.867 123.125C337.711 123.125 338.383 123.039 338.883 122.867C339.398 122.695 339.789 122.445 340.055 122.117C340.336 121.789 340.555 121.391 340.711 120.922L342.633 116.023ZM340.969 93.6406L345.961 111.383L346.828 119.75H341.531L332.508 93.6406H340.969ZM367.711 99.0078V119H359.812V93.6406H367.219L367.711 99.0078ZM366.75 105.453L364.945 105.5C364.945 103.719 365.156 102.078 365.578 100.578C366 99.0781 366.625 97.7734 367.453 96.6641C368.281 95.5547 369.297 94.6953 370.5 94.0859C371.719 93.4766 373.125 93.1719 374.719 93.1719C375.828 93.1719 376.836 93.3438 377.742 93.6875C378.648 94.0156 379.43 94.5391 380.086 95.2578C380.742 95.9609 381.242 96.8828 381.586 98.0234C381.945 99.1484 382.125 100.5 382.125 102.078V119H374.227V103.086C374.227 102.008 374.102 101.195 373.852 100.648C373.617 100.102 373.273 99.7344 372.82 99.5469C372.367 99.3594 371.812 99.2656 371.156 99.2656C370.469 99.2656 369.852 99.4219 369.305 99.7344C368.758 100.047 368.289 100.484 367.898 101.047C367.523 101.594 367.234 102.242 367.031 102.992C366.844 103.742 366.75 104.562 366.75 105.453ZM381.234 105.453L379.031 105.5C379.031 103.719 379.227 102.078 379.617 100.578C380.023 99.0781 380.625 97.7734 381.422 96.6641C382.234 95.5547 383.242 94.6953 384.445 94.0859C385.648 93.4766 387.047 93.1719 388.641 93.1719C389.797 93.1719 390.859 93.3438 391.828 93.6875C392.797 94.0312 393.633 94.5859 394.336 95.3516C395.039 96.1172 395.586 97.1328 395.977 98.3984C396.367 99.6484 396.562 101.195 396.562 103.039V119H388.641V103.039C388.641 101.992 388.516 101.203 388.266 100.672C388.031 100.125 387.688 99.7578 387.234 99.5703C386.781 99.3672 386.242 99.2656 385.617 99.2656C384.867 99.2656 384.219 99.4219 383.672 99.7344C383.125 100.047 382.664 100.484 382.289 101.047C381.93 101.594 381.664 102.242 381.492 102.992C381.32 103.742 381.234 104.562 381.234 105.453ZM413.367 119.469C411.305 119.469 409.461 119.148 407.836 118.508C406.211 117.852 404.836 116.953 403.711 115.812C402.602 114.672 401.75 113.359 401.156 111.875C400.578 110.391 400.289 108.82 400.289 107.164V106.273C400.289 104.414 400.547 102.695 401.062 101.117C401.578 99.5234 402.344 98.1328 403.359 96.9453C404.375 95.7578 405.648 94.8359 407.18 94.1797C408.711 93.5078 410.492 93.1719 412.523 93.1719C414.32 93.1719 415.93 93.4609 417.352 94.0391C418.773 94.6172 419.977 95.4453 420.961 96.5234C421.961 97.6016 422.719 98.9062 423.234 100.438C423.766 101.969 424.031 103.688 424.031 105.594V108.805H403.312V103.859H416.32V103.25C416.336 102.406 416.188 101.688 415.875 101.094C415.578 100.5 415.141 100.047 414.562 99.7344C413.984 99.4219 413.281 99.2656 412.453 99.2656C411.594 99.2656 410.883 99.4531 410.32 99.8281C409.773 100.203 409.344 100.719 409.031 101.375C408.734 102.016 408.523 102.758 408.398 103.602C408.273 104.445 408.211 105.336 408.211 106.273V107.164C408.211 108.102 408.336 108.953 408.586 109.719C408.852 110.484 409.227 111.141 409.711 111.688C410.211 112.219 410.805 112.633 411.492 112.93C412.195 113.227 412.992 113.375 413.883 113.375C414.961 113.375 416.023 113.172 417.07 112.766C418.117 112.359 419.016 111.688 419.766 110.75L423.352 115.016C422.836 115.75 422.102 116.461 421.148 117.148C420.211 117.836 419.086 118.398 417.773 118.836C416.461 119.258 414.992 119.469 413.367 119.469ZM435 99.0547V119H427.102V93.6406H434.508L435 99.0547ZM434.062 105.453L432.211 105.5C432.211 103.562 432.445 101.836 432.914 100.32C433.383 98.7891 434.047 97.4922 434.906 96.4297C435.766 95.3672 436.789 94.5625 437.977 94.0156C439.18 93.4531 440.516 93.1719 441.984 93.1719C443.156 93.1719 444.227 93.3438 445.195 93.6875C446.18 94.0312 447.023 94.5859 447.727 95.3516C448.445 96.1172 448.992 97.1328 449.367 98.3984C449.758 99.6484 449.953 101.195 449.953 103.039V119H442.008V103.016C442.008 102 441.867 101.227 441.586 100.695C441.305 100.148 440.898 99.7734 440.367 99.5703C439.836 99.3672 439.188 99.2656 438.422 99.2656C437.609 99.2656 436.922 99.4219 436.359 99.7344C435.797 100.047 435.344 100.484 435 101.047C434.672 101.594 434.43 102.242 434.273 102.992C434.133 103.742 434.062 104.562 434.062 105.453ZM467.695 93.6406V99.125H452.414V93.6406H467.695ZM455.625 87.3359H463.523V110.727C463.523 111.398 463.602 111.922 463.758 112.297C463.914 112.656 464.18 112.914 464.555 113.07C464.945 113.211 465.461 113.281 466.102 113.281C466.555 113.281 466.93 113.273 467.227 113.258C467.523 113.227 467.805 113.188 468.07 113.141V118.789C467.398 119.008 466.695 119.172 465.961 119.281C465.227 119.406 464.445 119.469 463.617 119.469C461.93 119.469 460.484 119.203 459.281 118.672C458.094 118.141 457.188 117.305 456.562 116.164C455.938 115.023 455.625 113.539 455.625 111.711V87.3359Z" fill="black"/>
<path d="M1134 0H1348C1356.28 0 1363 6.71573 1363 15V148C1363 156.284 1356.28 163 1348 163H1134V0Z" fill="#5271FF"/>
<path d="M1212.5 117.5L1212.5 45.5L1284.5 45.5L1284.5 117.5L1212.5 117.5Z" fill="white" fill-opacity="0.01"/>
<path d="M1221.5 81.5125L1221.5 108.5L1275.5 108.5L1275.5 81.5" stroke="white" stroke-width="7.24" stroke-linecap="round" stroke-linejoin="round"/>
<path d="M1262 68L1248.5 54.5L1235 68" stroke="white" stroke-width="7.24" stroke-linecap="round" stroke-linejoin="round"/>
<path d="M1248.49 93.5L1248.49 54.5" stroke="white" stroke-width="7.24" stroke-linecap="round" stroke-linejoin="round"/>
</svg>
