<svg width="1363" height="163" viewBox="0 0 1363 163" fill="none" xmlns="http://www.w3.org/2000/svg">
<path d="M0 15C0 6.71573 6.71573 0 15 0H37V163H15C6.71573 163 0 156.284 0 148V15Z" fill="#424242"/>
<rect width="1097" height="163" transform="translate(37)" fill="#F0F0F0"/>
<path d="M101.906 53.9219L94.3945 51.2383V48.0859L104.602 52.375V54.6367L101.906 53.9219ZM94.3945 56.1719L101.918 53.4297L104.602 52.7852V55.0352L94.3945 59.3242V56.1719ZM115.805 56.5352C115.805 56.2305 115.758 55.957 115.664 55.7148C115.578 55.4648 115.414 55.2383 115.172 55.0352C114.93 54.8242 114.59 54.6172 114.152 54.4141C113.715 54.2109 113.148 54 112.453 53.7812C111.68 53.5312 110.945 53.25 110.25 52.9375C109.562 52.625 108.953 52.2617 108.422 51.8477C107.898 51.4258 107.484 50.9375 107.18 50.3828C106.883 49.8281 106.734 49.1836 106.734 48.4492C106.734 47.7383 106.891 47.0938 107.203 46.5156C107.516 45.9297 107.953 45.4297 108.516 45.0156C109.078 44.5938 109.742 44.2695 110.508 44.043C111.281 43.8164 112.129 43.7031 113.051 43.7031C114.309 43.7031 115.406 43.9297 116.344 44.3828C117.281 44.8359 118.008 45.457 118.523 46.2461C119.047 47.0352 119.309 47.9375 119.309 48.9531H115.816C115.816 48.4531 115.711 48.0156 115.5 47.6406C115.297 47.2578 114.984 46.957 114.562 46.7383C114.148 46.5195 113.625 46.4102 112.992 46.4102C112.383 46.4102 111.875 46.5039 111.469 46.6914C111.062 46.8711 110.758 47.1172 110.555 47.4297C110.352 47.7344 110.25 48.0781 110.25 48.4609C110.25 48.75 110.32 49.0117 110.461 49.2461C110.609 49.4805 110.828 49.6992 111.117 49.9023C111.406 50.1055 111.762 50.2969 112.184 50.4766C112.605 50.6562 113.094 50.832 113.648 51.0039C114.578 51.2852 115.395 51.6016 116.098 51.9531C116.809 52.3047 117.402 52.6992 117.879 53.1367C118.355 53.5742 118.715 54.0703 118.957 54.625C119.199 55.1797 119.32 55.8086 119.32 56.5117C119.32 57.2539 119.176 57.918 118.887 58.5039C118.598 59.0898 118.18 59.5859 117.633 59.9922C117.086 60.3984 116.434 60.707 115.676 60.918C114.918 61.1289 114.07 61.2344 113.133 61.2344C112.289 61.2344 111.457 61.125 110.637 60.9062C109.816 60.6797 109.07 60.3398 108.398 59.8867C107.734 59.4336 107.203 58.8555 106.805 58.1523C106.406 57.4492 106.207 56.6172 106.207 55.6562H109.734C109.734 56.1875 109.816 56.6367 109.98 57.0039C110.145 57.3711 110.375 57.668 110.672 57.8945C110.977 58.1211 111.336 58.2852 111.75 58.3867C112.172 58.4883 112.633 58.5391 113.133 58.5391C113.742 58.5391 114.242 58.4531 114.633 58.2812C115.031 58.1094 115.324 57.8711 115.512 57.5664C115.707 57.2617 115.805 56.918 115.805 56.5352ZM125.062 48.3203V61H121.676V48.3203H125.062ZM121.465 45.0156C121.465 44.5234 121.637 44.1172 121.98 43.7969C122.324 43.4766 122.785 43.3164 123.363 43.3164C123.934 43.3164 124.391 43.4766 124.734 43.7969C125.086 44.1172 125.262 44.5234 125.262 45.0156C125.262 45.5078 125.086 45.9141 124.734 46.2344C124.391 46.5547 123.934 46.7148 123.363 46.7148C122.785 46.7148 122.324 46.5547 121.98 46.2344C121.637 45.9141 121.465 45.5078 121.465 45.0156ZM135.879 48.3203H138.938V60.5781C138.938 61.7344 138.68 62.7148 138.164 63.5195C137.656 64.332 136.945 64.9453 136.031 65.3594C135.117 65.7812 134.055 65.9922 132.844 65.9922C132.312 65.9922 131.75 65.9219 131.156 65.7812C130.57 65.6406 130.008 65.4219 129.469 65.125C128.938 64.8281 128.492 64.4531 128.133 64L129.621 62.0078C130.012 62.4609 130.465 62.8125 130.98 63.0625C131.496 63.3203 132.066 63.4492 132.691 63.4492C133.301 63.4492 133.816 63.3359 134.238 63.1094C134.66 62.8906 134.984 62.5664 135.211 62.1367C135.438 61.7148 135.551 61.2031 135.551 60.6016V51.25L135.879 48.3203ZM127.348 54.8125V54.5664C127.348 53.5977 127.465 52.7188 127.699 51.9297C127.941 51.1328 128.281 50.4492 128.719 49.8789C129.164 49.3086 129.703 48.8672 130.336 48.5547C130.969 48.2422 131.684 48.0859 132.48 48.0859C133.324 48.0859 134.031 48.2422 134.602 48.5547C135.172 48.8672 135.641 49.3125 136.008 49.8906C136.375 50.4609 136.66 51.1367 136.863 51.918C137.074 52.6914 137.238 53.5391 137.355 54.4609V55C137.238 55.8828 137.062 56.7031 136.828 57.4609C136.594 58.2188 136.285 58.8828 135.902 59.4531C135.52 60.0156 135.043 60.4531 134.473 60.7656C133.91 61.0781 133.238 61.2344 132.457 61.2344C131.676 61.2344 130.969 61.0742 130.336 60.7539C129.711 60.4336 129.176 59.9844 128.73 59.4062C128.285 58.8281 127.941 58.1484 127.699 57.3672C127.465 56.5859 127.348 55.7344 127.348 54.8125ZM130.723 54.5664V54.8125C130.723 55.3359 130.773 55.8242 130.875 56.2773C130.977 56.7305 131.133 57.1328 131.344 57.4844C131.562 57.8281 131.832 58.0977 132.152 58.293C132.48 58.4805 132.867 58.5742 133.312 58.5742C133.93 58.5742 134.434 58.4453 134.824 58.1875C135.215 57.9219 135.508 57.5586 135.703 57.0977C135.898 56.6367 136.012 56.1055 136.043 55.5039V53.9688C136.027 53.4766 135.961 53.0352 135.844 52.6445C135.727 52.2461 135.562 51.9062 135.352 51.625C135.141 51.3438 134.867 51.125 134.531 50.9688C134.195 50.8125 133.797 50.7344 133.336 50.7344C132.891 50.7344 132.504 50.8359 132.176 51.0391C131.855 51.2344 131.586 51.5039 131.367 51.8477C131.156 52.1914 130.996 52.5977 130.887 53.0664C130.777 53.5273 130.723 54.0273 130.723 54.5664ZM144.867 51.0273V61H141.492V48.3203H144.656L144.867 51.0273ZM144.375 54.2148H143.461C143.461 53.2773 143.582 52.4336 143.824 51.6836C144.066 50.9258 144.406 50.2812 144.844 49.75C145.281 49.2109 145.801 48.8008 146.402 48.5195C147.012 48.2305 147.691 48.0859 148.441 48.0859C149.035 48.0859 149.578 48.1719 150.07 48.3438C150.562 48.5156 150.984 48.7891 151.336 49.1641C151.695 49.5391 151.969 50.0352 152.156 50.6523C152.352 51.2695 152.449 52.0234 152.449 52.9141V61H149.051V52.9023C149.051 52.3398 148.973 51.9023 148.816 51.5898C148.66 51.2773 148.43 51.0586 148.125 50.9336C147.828 50.8008 147.461 50.7344 147.023 50.7344C146.57 50.7344 146.176 50.8242 145.84 51.0039C145.512 51.1836 145.238 51.4336 145.02 51.7539C144.809 52.0664 144.648 52.4336 144.539 52.8555C144.43 53.2773 144.375 53.7305 144.375 54.2148ZM164.109 56.5352C164.109 56.2305 164.062 55.957 163.969 55.7148C163.883 55.4648 163.719 55.2383 163.477 55.0352C163.234 54.8242 162.895 54.6172 162.457 54.4141C162.02 54.2109 161.453 54 160.758 53.7812C159.984 53.5312 159.25 53.25 158.555 52.9375C157.867 52.625 157.258 52.2617 156.727 51.8477C156.203 51.4258 155.789 50.9375 155.484 50.3828C155.188 49.8281 155.039 49.1836 155.039 48.4492C155.039 47.7383 155.195 47.0938 155.508 46.5156C155.82 45.9297 156.258 45.4297 156.82 45.0156C157.383 44.5938 158.047 44.2695 158.812 44.043C159.586 43.8164 160.434 43.7031 161.355 43.7031C162.613 43.7031 163.711 43.9297 164.648 44.3828C165.586 44.8359 166.312 45.457 166.828 46.2461C167.352 47.0352 167.613 47.9375 167.613 48.9531H164.121C164.121 48.4531 164.016 48.0156 163.805 47.6406C163.602 47.2578 163.289 46.957 162.867 46.7383C162.453 46.5195 161.93 46.4102 161.297 46.4102C160.688 46.4102 160.18 46.5039 159.773 46.6914C159.367 46.8711 159.062 47.1172 158.859 47.4297C158.656 47.7344 158.555 48.0781 158.555 48.4609C158.555 48.75 158.625 49.0117 158.766 49.2461C158.914 49.4805 159.133 49.6992 159.422 49.9023C159.711 50.1055 160.066 50.2969 160.488 50.4766C160.91 50.6562 161.398 50.832 161.953 51.0039C162.883 51.2852 163.699 51.6016 164.402 51.9531C165.113 52.3047 165.707 52.6992 166.184 53.1367C166.66 53.5742 167.02 54.0703 167.262 54.625C167.504 55.1797 167.625 55.8086 167.625 56.5117C167.625 57.2539 167.48 57.918 167.191 58.5039C166.902 59.0898 166.484 59.5859 165.938 59.9922C165.391 60.3984 164.738 60.707 163.98 60.918C163.223 61.1289 162.375 61.2344 161.438 61.2344C160.594 61.2344 159.762 61.125 158.941 60.9062C158.121 60.6797 157.375 60.3398 156.703 59.8867C156.039 59.4336 155.508 58.8555 155.109 58.1523C154.711 57.4492 154.512 56.6172 154.512 55.6562H158.039C158.039 56.1875 158.121 56.6367 158.285 57.0039C158.449 57.3711 158.68 57.668 158.977 57.8945C159.281 58.1211 159.641 58.2852 160.055 58.3867C160.477 58.4883 160.938 58.5391 161.438 58.5391C162.047 58.5391 162.547 58.4531 162.938 58.2812C163.336 58.1094 163.629 57.8711 163.816 57.5664C164.012 57.2617 164.109 56.918 164.109 56.5352ZM173.18 50.7578V65.875H169.805V48.3203H172.934L173.18 50.7578ZM181.207 54.5195V54.7656C181.207 55.6875 181.098 56.543 180.879 57.332C180.668 58.1211 180.355 58.8086 179.941 59.3945C179.527 59.9727 179.012 60.4258 178.395 60.7539C177.785 61.0742 177.082 61.2344 176.285 61.2344C175.512 61.2344 174.84 61.0781 174.27 60.7656C173.699 60.4531 173.219 60.0156 172.828 59.4531C172.445 58.8828 172.137 58.2227 171.902 57.4727C171.668 56.7227 171.488 55.918 171.363 55.0586V54.4141C171.488 53.4922 171.668 52.6484 171.902 51.8828C172.137 51.1094 172.445 50.4414 172.828 49.8789C173.219 49.3086 173.695 48.8672 174.258 48.5547C174.828 48.2422 175.496 48.0859 176.262 48.0859C177.066 48.0859 177.773 48.2383 178.383 48.543C179 48.8477 179.516 49.2852 179.93 49.8555C180.352 50.4258 180.668 51.1055 180.879 51.8945C181.098 52.6836 181.207 53.5586 181.207 54.5195ZM177.82 54.7656V54.5195C177.82 53.9805 177.773 53.4844 177.68 53.0312C177.594 52.5703 177.453 52.168 177.258 51.8242C177.07 51.4805 176.82 51.2148 176.508 51.0273C176.203 50.832 175.832 50.7344 175.395 50.7344C174.934 50.7344 174.539 50.8086 174.211 50.957C173.891 51.1055 173.629 51.3203 173.426 51.6016C173.223 51.8828 173.07 52.2188 172.969 52.6094C172.867 53 172.805 53.4414 172.781 53.9336V55.5625C172.82 56.1406 172.93 56.6602 173.109 57.1211C173.289 57.5742 173.566 57.9336 173.941 58.1992C174.316 58.4648 174.809 58.5977 175.418 58.5977C175.863 58.5977 176.238 58.5 176.543 58.3047C176.848 58.1016 177.094 57.8242 177.281 57.4727C177.477 57.1211 177.613 56.7148 177.691 56.2539C177.777 55.793 177.82 55.2969 177.82 54.7656ZM189.141 61.2344C188.156 61.2344 187.273 61.0781 186.492 60.7656C185.711 60.4453 185.047 60.0039 184.5 59.4414C183.961 58.8789 183.547 58.2266 183.258 57.4844C182.969 56.7344 182.824 55.9375 182.824 55.0938V54.625C182.824 53.6641 182.961 52.7852 183.234 51.9883C183.508 51.1914 183.898 50.5 184.406 49.9141C184.922 49.3281 185.547 48.8789 186.281 48.5664C187.016 48.2461 187.844 48.0859 188.766 48.0859C189.664 48.0859 190.461 48.2344 191.156 48.5312C191.852 48.8281 192.434 49.25 192.902 49.7969C193.379 50.3438 193.738 51 193.98 51.7656C194.223 52.5234 194.344 53.3672 194.344 54.2969V55.7031H184.266V53.4531H191.027V53.1953C191.027 52.7266 190.941 52.3086 190.77 51.9414C190.605 51.5664 190.355 51.2695 190.02 51.0508C189.684 50.832 189.254 50.7227 188.73 50.7227C188.285 50.7227 187.902 50.8203 187.582 51.0156C187.262 51.2109 187 51.4844 186.797 51.8359C186.602 52.1875 186.453 52.6016 186.352 53.0781C186.258 53.5469 186.211 54.0625 186.211 54.625V55.0938C186.211 55.6016 186.281 56.0703 186.422 56.5C186.57 56.9297 186.777 57.3008 187.043 57.6133C187.316 57.9258 187.645 58.168 188.027 58.3398C188.418 58.5117 188.859 58.5977 189.352 58.5977C189.961 58.5977 190.527 58.4805 191.051 58.2461C191.582 58.0039 192.039 57.6406 192.422 57.1562L194.062 58.9375C193.797 59.3203 193.434 59.6875 192.973 60.0391C192.52 60.3906 191.973 60.6797 191.332 60.9062C190.691 61.125 189.961 61.2344 189.141 61.2344ZM203.109 58.1406V52.4922C203.109 52.0859 203.043 51.7383 202.91 51.4492C202.777 51.1523 202.57 50.9219 202.289 50.7578C202.016 50.5938 201.66 50.5117 201.223 50.5117C200.848 50.5117 200.523 50.5781 200.25 50.7109C199.977 50.8359 199.766 51.0195 199.617 51.2617C199.469 51.4961 199.395 51.7734 199.395 52.0938H196.02C196.02 51.5547 196.145 51.043 196.395 50.5586C196.645 50.0742 197.008 49.6484 197.484 49.2812C197.961 48.9062 198.527 48.6133 199.184 48.4023C199.848 48.1914 200.59 48.0859 201.41 48.0859C202.395 48.0859 203.27 48.25 204.035 48.5781C204.801 48.9062 205.402 49.3984 205.84 50.0547C206.285 50.7109 206.508 51.5312 206.508 52.5156V57.9414C206.508 58.6367 206.551 59.207 206.637 59.6523C206.723 60.0898 206.848 60.4727 207.012 60.8008V61H203.602C203.438 60.6562 203.312 60.2266 203.227 59.7109C203.148 59.1875 203.109 58.6641 203.109 58.1406ZM203.555 53.2773L203.578 55.1875H201.691C201.246 55.1875 200.859 55.2383 200.531 55.3398C200.203 55.4414 199.934 55.5859 199.723 55.7734C199.512 55.9531 199.355 56.1641 199.254 56.4062C199.16 56.6484 199.113 56.9141 199.113 57.2031C199.113 57.4922 199.18 57.7539 199.312 57.9883C199.445 58.2148 199.637 58.3945 199.887 58.5273C200.137 58.6523 200.43 58.7148 200.766 58.7148C201.273 58.7148 201.715 58.6133 202.09 58.4102C202.465 58.207 202.754 57.957 202.957 57.6602C203.168 57.3633 203.277 57.082 203.285 56.8164L204.176 58.2461C204.051 58.5664 203.879 58.8984 203.66 59.2422C203.449 59.5859 203.18 59.9102 202.852 60.2148C202.523 60.5117 202.129 60.7578 201.668 60.9531C201.207 61.1406 200.66 61.2344 200.027 61.2344C199.223 61.2344 198.492 61.0742 197.836 60.7539C197.188 60.4258 196.672 59.9766 196.289 59.4062C195.914 58.8281 195.727 58.1719 195.727 57.4375C195.727 56.7734 195.852 56.1836 196.102 55.668C196.352 55.1523 196.719 54.7188 197.203 54.3672C197.695 54.0078 198.309 53.7383 199.043 53.5586C199.777 53.3711 200.629 53.2773 201.598 53.2773H203.555ZM212.484 42.9883V61H209.109V42.9883H212.484ZM220.477 48.3203L214.969 54.6016L212.016 57.5898L210.785 55.1523L213.129 52.1758L216.422 48.3203H220.477ZM216.973 61L213.223 55.1406L215.555 53.1016L220.863 61H216.973Z" fill="#888888"/>
<path d="M112.125 84.875V119H103.898V84.875H112.125ZM122.391 84.875V91.2266H93.8672V84.875H122.391ZM135.68 119.469C133.617 119.469 131.773 119.148 130.148 118.508C128.523 117.852 127.148 116.953 126.023 115.812C124.914 114.672 124.062 113.359 123.469 111.875C122.891 110.391 122.602 108.82 122.602 107.164V106.273C122.602 104.414 122.859 102.695 123.375 101.117C123.891 99.5234 124.656 98.1328 125.672 96.9453C126.688 95.7578 127.961 94.8359 129.492 94.1797C131.023 93.5078 132.805 93.1719 134.836 93.1719C136.633 93.1719 138.242 93.4609 139.664 94.0391C141.086 94.6172 142.289 95.4453 143.273 96.5234C144.273 97.6016 145.031 98.9062 145.547 100.438C146.078 101.969 146.344 103.688 146.344 105.594V108.805H125.625V103.859H138.633V103.25C138.648 102.406 138.5 101.688 138.188 101.094C137.891 100.5 137.453 100.047 136.875 99.7344C136.297 99.4219 135.594 99.2656 134.766 99.2656C133.906 99.2656 133.195 99.4531 132.633 99.8281C132.086 100.203 131.656 100.719 131.344 101.375C131.047 102.016 130.836 102.758 130.711 103.602C130.586 104.445 130.523 105.336 130.523 106.273V107.164C130.523 108.102 130.648 108.953 130.898 109.719C131.164 110.484 131.539 111.141 132.023 111.688C132.523 112.219 133.117 112.633 133.805 112.93C134.508 113.227 135.305 113.375 136.195 113.375C137.273 113.375 138.336 113.172 139.383 112.766C140.43 112.359 141.328 111.688 142.078 110.75L145.664 115.016C145.148 115.75 144.414 116.461 143.461 117.148C142.523 117.836 141.398 118.398 140.086 118.836C138.773 119.258 137.305 119.469 135.68 119.469ZM160.266 113.375C161 113.375 161.625 113.242 162.141 112.977C162.672 112.695 163.07 112.305 163.336 111.805C163.617 111.289 163.75 110.672 163.734 109.953H171.164C171.18 111.859 170.711 113.531 169.758 114.969C168.82 116.391 167.539 117.5 165.914 118.297C164.305 119.078 162.484 119.469 160.453 119.469C158.469 119.469 156.734 119.148 155.25 118.508C153.766 117.852 152.523 116.945 151.523 115.789C150.539 114.617 149.797 113.25 149.297 111.688C148.812 110.125 148.57 108.43 148.57 106.602V106.062C148.57 104.234 148.812 102.539 149.297 100.977C149.797 99.3984 150.539 98.0312 151.523 96.875C152.523 95.7031 153.758 94.7969 155.227 94.1562C156.711 93.5 158.438 93.1719 160.406 93.1719C162.516 93.1719 164.375 93.5703 165.984 94.3672C167.609 95.1641 168.883 96.3203 169.805 97.8359C170.727 99.3516 171.18 101.188 171.164 103.344H163.734C163.75 102.578 163.633 101.891 163.383 101.281C163.133 100.672 162.742 100.188 162.211 99.8281C161.695 99.4531 161.031 99.2656 160.219 99.2656C159.406 99.2656 158.75 99.4453 158.25 99.8047C157.75 100.164 157.367 100.664 157.102 101.305C156.852 101.93 156.68 102.648 156.586 103.461C156.508 104.273 156.469 105.141 156.469 106.062V106.602C156.469 107.539 156.508 108.422 156.586 109.25C156.68 110.062 156.859 110.781 157.125 111.406C157.391 112.016 157.773 112.5 158.273 112.859C158.773 113.203 159.438 113.375 160.266 113.375ZM182.273 83V119H174.375V83H182.273ZM181.336 105.453L179.484 105.5C179.484 103.719 179.703 102.078 180.141 100.578C180.578 99.0781 181.203 97.7734 182.016 96.6641C182.828 95.5547 183.805 94.6953 184.945 94.0859C186.086 93.4766 187.352 93.1719 188.742 93.1719C189.992 93.1719 191.133 93.3516 192.164 93.7109C193.211 94.0703 194.109 94.6484 194.859 95.4453C195.625 96.2422 196.211 97.2812 196.617 98.5625C197.039 99.8438 197.25 101.406 197.25 103.25V119H189.305V103.203C189.305 102.172 189.156 101.375 188.859 100.812C188.578 100.234 188.172 99.8359 187.641 99.6172C187.109 99.3828 186.461 99.2656 185.695 99.2656C184.773 99.2656 184.023 99.4219 183.445 99.7344C182.867 100.047 182.422 100.484 182.109 101.047C181.812 101.594 181.609 102.242 181.5 102.992C181.391 103.742 181.336 104.562 181.336 105.453ZM231.539 109.93C231.539 109.398 231.461 108.922 231.305 108.5C231.148 108.062 230.859 107.656 230.438 107.281C230.016 106.906 229.406 106.531 228.609 106.156C227.828 105.766 226.797 105.359 225.516 104.938C224.016 104.438 222.57 103.875 221.18 103.25C219.789 102.609 218.547 101.867 217.453 101.023C216.359 100.164 215.492 99.1641 214.852 98.0234C214.211 96.8672 213.891 95.5234 213.891 93.9922C213.891 92.5234 214.219 91.2031 214.875 90.0312C215.531 88.8438 216.445 87.8359 217.617 87.0078C218.805 86.1641 220.195 85.5234 221.789 85.0859C223.383 84.6328 225.125 84.4062 227.016 84.4062C229.516 84.4062 231.719 84.8438 233.625 85.7188C235.547 86.5781 237.047 87.8047 238.125 89.3984C239.219 90.9766 239.766 92.8438 239.766 95H231.586C231.586 94.1406 231.406 93.3828 231.047 92.7266C230.703 92.0703 230.18 91.5547 229.477 91.1797C228.773 90.8047 227.891 90.6172 226.828 90.6172C225.797 90.6172 224.93 90.7734 224.227 91.0859C223.523 91.3984 222.992 91.8203 222.633 92.3516C222.273 92.8672 222.094 93.4375 222.094 94.0625C222.094 94.5781 222.234 95.0469 222.516 95.4688C222.812 95.875 223.227 96.2578 223.758 96.6172C224.305 96.9766 224.961 97.3203 225.727 97.6484C226.508 97.9766 227.383 98.2969 228.352 98.6094C230.164 99.1875 231.773 99.8359 233.18 100.555C234.602 101.258 235.797 102.062 236.766 102.969C237.75 103.859 238.492 104.875 238.992 106.016C239.508 107.156 239.766 108.445 239.766 109.883C239.766 111.414 239.469 112.773 238.875 113.961C238.281 115.148 237.43 116.156 236.32 116.984C235.211 117.797 233.883 118.414 232.336 118.836C230.789 119.258 229.062 119.469 227.156 119.469C225.406 119.469 223.68 119.25 221.977 118.812C220.289 118.359 218.758 117.672 217.383 116.75C216.008 115.812 214.906 114.617 214.078 113.164C213.266 111.695 212.859 109.953 212.859 107.938H221.109C221.109 108.938 221.242 109.781 221.508 110.469C221.773 111.156 222.164 111.711 222.68 112.133C223.195 112.539 223.828 112.836 224.578 113.023C225.328 113.195 226.188 113.281 227.156 113.281C228.203 113.281 229.047 113.133 229.688 112.836C230.328 112.523 230.797 112.117 231.094 111.617C231.391 111.102 231.539 110.539 231.539 109.93ZM256.992 93.6406V99.125H241.711V93.6406H256.992ZM244.922 87.3359H252.82V110.727C252.82 111.398 252.898 111.922 253.055 112.297C253.211 112.656 253.477 112.914 253.852 113.07C254.242 113.211 254.758 113.281 255.398 113.281C255.852 113.281 256.227 113.273 256.523 113.258C256.82 113.227 257.102 113.188 257.367 113.141V118.789C256.695 119.008 255.992 119.172 255.258 119.281C254.523 119.406 253.742 119.469 252.914 119.469C251.227 119.469 249.781 119.203 248.578 118.672C247.391 118.141 246.484 117.305 245.859 116.164C245.234 115.023 244.922 113.539 244.922 111.711V87.3359ZM273.305 112.625V102.172C273.305 101.453 273.203 100.836 273 100.32C272.797 99.8047 272.477 99.4062 272.039 99.125C271.602 98.8281 271.016 98.6797 270.281 98.6797C269.688 98.6797 269.18 98.7812 268.758 98.9844C268.336 99.1875 268.016 99.4922 267.797 99.8984C267.578 100.305 267.469 100.82 267.469 101.445H259.57C259.57 100.273 259.828 99.1875 260.344 98.1875C260.875 97.1719 261.625 96.2891 262.594 95.5391C263.578 94.7891 264.75 94.2109 266.109 93.8047C267.484 93.3828 269.016 93.1719 270.703 93.1719C272.719 93.1719 274.516 93.5078 276.094 94.1797C277.688 94.8516 278.945 95.8594 279.867 97.2031C280.789 98.5312 281.25 100.203 281.25 102.219V112.602C281.25 114.258 281.344 115.516 281.531 116.375C281.719 117.219 281.984 117.961 282.328 118.602V119H274.406C274.031 118.219 273.75 117.266 273.562 116.141C273.391 115 273.305 113.828 273.305 112.625ZM274.266 103.508L274.312 107.727H270.82C270.086 107.727 269.461 107.828 268.945 108.031C268.445 108.234 268.039 108.516 267.727 108.875C267.43 109.219 267.211 109.609 267.07 110.047C266.945 110.484 266.883 110.945 266.883 111.43C266.883 111.898 266.992 112.32 267.211 112.695C267.445 113.055 267.758 113.336 268.148 113.539C268.539 113.742 268.977 113.844 269.461 113.844C270.336 113.844 271.078 113.68 271.688 113.352C272.312 113.008 272.789 112.594 273.117 112.109C273.445 111.625 273.609 111.172 273.609 110.75L275.344 113.984C275.031 114.609 274.672 115.242 274.266 115.883C273.875 116.523 273.383 117.117 272.789 117.664C272.211 118.195 271.5 118.633 270.656 118.977C269.812 119.305 268.789 119.469 267.586 119.469C266.023 119.469 264.586 119.148 263.273 118.508C261.977 117.867 260.938 116.977 260.156 115.836C259.375 114.68 258.984 113.352 258.984 111.852C258.984 110.539 259.219 109.367 259.688 108.336C260.172 107.305 260.898 106.43 261.867 105.711C262.836 104.992 264.07 104.445 265.57 104.07C267.07 103.695 268.836 103.508 270.867 103.508H274.266ZM296.344 113.375C297.078 113.375 297.703 113.242 298.219 112.977C298.75 112.695 299.148 112.305 299.414 111.805C299.695 111.289 299.828 110.672 299.812 109.953H307.242C307.258 111.859 306.789 113.531 305.836 114.969C304.898 116.391 303.617 117.5 301.992 118.297C300.383 119.078 298.562 119.469 296.531 119.469C294.547 119.469 292.812 119.148 291.328 118.508C289.844 117.852 288.602 116.945 287.602 115.789C286.617 114.617 285.875 113.25 285.375 111.688C284.891 110.125 284.648 108.43 284.648 106.602V106.062C284.648 104.234 284.891 102.539 285.375 100.977C285.875 99.3984 286.617 98.0312 287.602 96.875C288.602 95.7031 289.836 94.7969 291.305 94.1562C292.789 93.5 294.516 93.1719 296.484 93.1719C298.594 93.1719 300.453 93.5703 302.062 94.3672C303.688 95.1641 304.961 96.3203 305.883 97.8359C306.805 99.3516 307.258 101.188 307.242 103.344H299.812C299.828 102.578 299.711 101.891 299.461 101.281C299.211 100.672 298.82 100.188 298.289 99.8281C297.773 99.4531 297.109 99.2656 296.297 99.2656C295.484 99.2656 294.828 99.4453 294.328 99.8047C293.828 100.164 293.445 100.664 293.18 101.305C292.93 101.93 292.758 102.648 292.664 103.461C292.586 104.273 292.547 105.141 292.547 106.062V106.602C292.547 107.539 292.586 108.422 292.664 109.25C292.758 110.062 292.938 110.781 293.203 111.406C293.469 112.016 293.852 112.5 294.352 112.859C294.852 113.203 295.516 113.375 296.344 113.375ZM318.586 82.9766V119H310.688V82.9766H318.586ZM334.805 93.6406L323.789 106.555L318.023 112.32L314.578 107.305L319.383 101.047L325.336 93.6406H334.805ZM326.344 119L319.57 107.445L325.406 103.297L335.391 119H326.344ZM350.156 111.875C350.156 111.438 350.008 111.062 349.711 110.75C349.43 110.422 348.93 110.125 348.211 109.859C347.492 109.578 346.484 109.297 345.188 109.016C343.953 108.75 342.789 108.398 341.695 107.961C340.617 107.523 339.672 106.992 338.859 106.367C338.047 105.742 337.406 105 336.938 104.141C336.484 103.281 336.258 102.297 336.258 101.188C336.258 100.109 336.484 99.0938 336.938 98.1406C337.406 97.1719 338.086 96.3203 338.977 95.5859C339.883 94.8359 340.984 94.25 342.281 93.8281C343.578 93.3906 345.055 93.1719 346.711 93.1719C348.992 93.1719 350.961 93.5234 352.617 94.2266C354.273 94.9141 355.547 95.8828 356.438 97.1328C357.344 98.3672 357.797 99.7969 357.797 101.422H349.898C349.898 100.781 349.789 100.234 349.57 99.7812C349.367 99.3281 349.031 98.9844 348.562 98.75C348.094 98.5 347.469 98.375 346.688 98.375C346.141 98.375 345.641 98.4766 345.188 98.6797C344.75 98.8828 344.398 99.1641 344.133 99.5234C343.867 99.8828 343.734 100.305 343.734 100.789C343.734 101.133 343.812 101.445 343.969 101.727C344.141 101.992 344.398 102.242 344.742 102.477C345.086 102.695 345.523 102.898 346.055 103.086C346.586 103.258 347.227 103.414 347.977 103.555C349.68 103.867 351.273 104.312 352.758 104.891C354.242 105.469 355.445 106.289 356.367 107.352C357.305 108.414 357.773 109.844 357.773 111.641C357.773 112.766 357.516 113.805 357 114.758C356.484 115.695 355.742 116.523 354.773 117.242C353.805 117.945 352.641 118.492 351.281 118.883C349.922 119.273 348.391 119.469 346.688 119.469C344.266 119.469 342.219 119.039 340.547 118.18C338.875 117.305 337.609 116.211 336.75 114.898C335.906 113.57 335.484 112.227 335.484 110.867H342.844C342.875 111.648 343.062 112.289 343.406 112.789C343.766 113.289 344.242 113.656 344.836 113.891C345.43 114.125 346.117 114.242 346.898 114.242C347.617 114.242 348.211 114.141 348.68 113.938C349.164 113.734 349.531 113.461 349.781 113.117C350.031 112.758 350.156 112.344 350.156 111.875Z" fill="black"/>
<path d="M1134 0H1348C1356.28 0 1363 6.71573 1363 15V148C1363 156.284 1356.28 163 1348 163H1134V0Z" fill="#5271FF"/>
<path fill-rule="evenodd" clip-rule="evenodd" d="M1219.98 53C1219.85 53 1219.73 53.0527 1219.64 53.1464C1219.55 53.2402 1219.5 53.3674 1219.5 53.5V109.5C1219.5 109.633 1219.55 109.76 1219.64 109.854C1219.73 109.947 1219.85 110 1219.98 110H1277.02C1277.15 110 1277.27 109.947 1277.36 109.854C1277.45 109.76 1277.5 109.633 1277.5 109.5V64C1277.5 63.8674 1277.45 63.7402 1277.36 63.6464C1277.27 63.5527 1277.15 63.5 1277.02 63.5H1248.5C1247.65 63.5 1246.84 63.1045 1246.29 62.4206L1238.77 53H1219.98ZM1215.58 48.9038C1216.74 47.6848 1218.33 47 1219.98 47H1240.11C1240.97 47 1241.77 47.3955 1242.32 48.0794L1249.85 57.5H1277.02C1278.67 57.5 1280.26 58.1848 1281.42 59.4038C1282.59 60.6228 1283.25 62.2761 1283.25 64V109.5C1283.25 111.224 1282.59 112.877 1281.42 114.096C1280.26 115.315 1278.67 116 1277.02 116H1219.98C1218.33 116 1216.74 115.315 1215.58 114.096C1214.41 112.877 1213.75 111.224 1213.75 109.5V53.5C1213.75 51.7761 1214.41 50.1228 1215.58 48.9038Z" fill="white"/>
<path fill-rule="evenodd" clip-rule="evenodd" d="M1244.16 75.5251C1245.47 76.892 1245.47 79.108 1244.16 80.4749L1238.15 86.75L1244.16 93.0251C1245.47 94.392 1245.47 96.608 1244.16 97.9749C1242.85 99.3417 1240.73 99.3417 1239.42 97.9749L1231.03 89.2249C1229.72 87.858 1229.72 85.642 1231.03 84.2751L1239.42 75.5251C1240.73 74.1583 1242.85 74.1583 1244.16 75.5251Z" fill="white"/>
<path fill-rule="evenodd" clip-rule="evenodd" d="M1252.12 97.9749C1250.81 96.608 1250.81 94.392 1252.12 93.0251L1258.13 86.75L1252.12 80.4749C1250.81 79.108 1250.81 76.892 1252.12 75.5251C1253.43 74.1583 1255.55 74.1583 1256.86 75.5251L1265.25 84.2751C1266.56 85.642 1266.56 87.858 1265.25 89.2249L1256.86 97.9749C1255.55 99.3417 1253.43 99.3417 1252.12 97.9749Z" fill="white"/>
</svg>
